<svg xmlns="http://www.w3.org/2000/svg" width="512" height="512" viewBox="0 0 512 512"><defs>
<linearGradient id="blue" x1="0" y1="0" x2="0" y2="1">
 <stop offset="0" stop-color="#4aa3ff"/><stop offset="0.5" stop-color="#1f6fe0"/>
 <stop offset="1" stop-color="#0b3f9c"/></linearGradient>
<linearGradient id="gloss" x1="0" y1="0" x2="0" y2="1">
 <stop offset="0" stop-color="#ffffff" stop-opacity="0.75"/>
 <stop offset="1" stop-color="#ffffff" stop-opacity="0"/></linearGradient>
<linearGradient id="metal" x1="0" y1="0" x2="0" y2="1">
 <stop offset="0" stop-color="#ffffff"/><stop offset="0.5" stop-color="#dbe4ee"/>
 <stop offset="1" stop-color="#9fb0c3"/></linearGradient>
<linearGradient id="cream" x1="0" y1="0" x2="0" y2="1">
 <stop offset="0" stop-color="#fff8e6"/><stop offset="1" stop-color="#f3e2b0"/></linearGradient>
<radialGradient id="hole" cx="0.5" cy="0.4" r="0.7">
 <stop offset="0" stop-color="#2a3340"/><stop offset="1" stop-color="#0d1218"/></radialGradient>
<filter id="ds" x="-25%" y="-25%" width="150%" height="150%">
 <feDropShadow dx="0" dy="7" stdDeviation="9" flood-color="#00133a" flood-opacity="0.4"/></filter>
<linearGradient id="leaf5" x1="0" y1="0" x2="0" y2="1"><stop offset="0" stop-color="#7ec850"/><stop offset="1" stop-color="#3f8f2e"/></linearGradient></defs><rect x="40" y="40" width="432" height="432" rx="104" fill="url(#blue)" filter="url(#ds)"/><rect x="40" y="40" width="432" height="432" rx="104" fill="none" stroke="#ffffff" stroke-opacity="0.25" stroke-width="4"/><path d="M64 144 Q64 64 144 64 L368 64 Q448 64 448 144 L448 232 Q256 296 64 232 Z" fill="url(#gloss)"/><circle cx="256" cy="270" r="150" fill="url(#metal)" stroke="#8ea3ba" stroke-width="6"/><circle cx="384" cy="270" r="8" fill="#8ea3ba"/><circle cx="367" cy="334" r="8" fill="#8ea3ba"/><circle cx="320" cy="381" r="8" fill="#8ea3ba"/><circle cx="256" cy="398" r="8" fill="#8ea3ba"/><circle cx="192" cy="381" r="8" fill="#8ea3ba"/><circle cx="145" cy="334" r="8" fill="#8ea3ba"/><circle cx="128" cy="270" r="8" fill="#8ea3ba"/><circle cx="145" cy="206" r="8" fill="#8ea3ba"/><circle cx="192" cy="159" r="8" fill="#8ea3ba"/><circle cx="256" cy="142" r="8" fill="#8ea3ba"/><circle cx="320" cy="159" r="8" fill="#8ea3ba"/><circle cx="367" cy="206" r="8" fill="#8ea3ba"/><clipPath id="cc5"><path d="M196,178 a60,60 0 0 1 120,0 L316,293 a60,60 0 0 1 -120,0 Z"/></clipPath>
<path d="M256,329.0 C175.0,300.5 191.2,379.25 247.0,405.5 C232.0,335.5 235.0,300.5 256,329.0 Z" fill="url(#leaf5)"/>
<path d="M256,329.0 C337.0,300.5 320.8,379.25 265.0,405.5 C280.0,335.5 277.0,300.5 256,329.0 Z" fill="url(#leaf5)"/>
<path d="M196,178 a60,60 0 0 1 120,0 L316,293 a60,60 0 0 1 -120,0 Z" fill="#f6c945"/>
<g clip-path="url(#cc5)">
<rect x="186.0" y="136.0" width="18.8" height="15.4" rx="6.9" fill="#ffdf5e" stroke="#e0a419" stroke-width="1.2"/>
<rect x="206.0" y="136.0" width="18.8" height="15.4" rx="6.9" fill="#f7b733" stroke="#e0a419" stroke-width="1.2"/>
<rect x="226.0" y="136.0" width="18.8" height="15.4" rx="6.9" fill="#ffd23f" stroke="#e0a419" stroke-width="1.2"/>
<rect x="246.0" y="136.0" width="18.8" height="15.4" rx="6.9" fill="#ffdf5e" stroke="#e0a419" stroke-width="1.2"/>
<rect x="266.0" y="136.0" width="18.8" height="15.4" rx="6.9" fill="#f7b733" stroke="#e0a419" stroke-width="1.2"/>
<rect x="286.0" y="136.0" width="18.8" height="15.4" rx="6.9" fill="#ffd23f" stroke="#e0a419" stroke-width="1.2"/>
<rect x="306.0" y="136.0" width="18.8" height="15.4" rx="6.9" fill="#ffdf5e" stroke="#e0a419" stroke-width="1.2"/>
<rect x="326.0" y="136.0" width="18.8" height="15.4" rx="6.9" fill="#f7b733" stroke="#e0a419" stroke-width="1.2"/>
<rect x="196.0" y="150.8" width="18.8" height="15.4" rx="6.9" fill="#f7b733" stroke="#e0a419" stroke-width="1.2"/>
<rect x="216.0" y="150.8" width="18.8" height="15.4" rx="6.9" fill="#ffd23f" stroke="#e0a419" stroke-width="1.2"/>
<rect x="236.0" y="150.8" width="18.8" height="15.4" rx="6.9" fill="#ffdf5e" stroke="#e0a419" stroke-width="1.2"/>
<rect x="256.0" y="150.8" width="18.8" height="15.4" rx="6.9" fill="#f7b733" stroke="#e0a419" stroke-width="1.2"/>
<rect x="276.0" y="150.8" width="18.8" height="15.4" rx="6.9" fill="#ffd23f" stroke="#e0a419" stroke-width="1.2"/>
<rect x="296.0" y="150.8" width="18.8" height="15.4" rx="6.9" fill="#ffdf5e" stroke="#e0a419" stroke-width="1.2"/>
<rect x="316.0" y="150.8" width="18.8" height="15.4" rx="6.9" fill="#f7b733" stroke="#e0a419" stroke-width="1.2"/>
<rect x="186.0" y="165.5" width="18.8" height="15.4" rx="6.9" fill="#f7b733" stroke="#e0a419" stroke-width="1.2"/>
<rect x="206.0" y="165.5" width="18.8" height="15.4" rx="6.9" fill="#ffd23f" stroke="#e0a419" stroke-width="1.2"/>
<rect x="226.0" y="165.5" width="18.8" height="15.4" rx="6.9" fill="#ffdf5e" stroke="#e0a419" stroke-width="1.2"/>
<rect x="246.0" y="165.5" width="18.8" height="15.4" rx="6.9" fill="#f7b733" stroke="#e0a419" stroke-width="1.2"/>
<rect x="266.0" y="165.5" width="18.8" height="15.4" rx="6.9" fill="#ffd23f" stroke="#e0a419" stroke-width="1.2"/>
<rect x="286.0" y="165.5" width="18.8" height="15.4" rx="6.9" fill="#ffdf5e" stroke="#e0a419" stroke-width="1.2"/>
<rect x="306.0" y="165.5" width="18.8" height="15.4" rx="6.9" fill="#f7b733" stroke="#e0a419" stroke-width="1.2"/>
<rect x="326.0" y="165.5" width="18.8" height="15.4" rx="6.9" fill="#ffd23f" stroke="#e0a419" stroke-width="1.2"/>
<rect x="196.0" y="180.3" width="18.8" height="15.4" rx="6.9" fill="#ffd23f" stroke="#e0a419" stroke-width="1.2"/>
<rect x="216.0" y="180.3" width="18.8" height="15.4" rx="6.9" fill="#ffdf5e" stroke="#e0a419" stroke-width="1.2"/>
<rect x="236.0" y="180.3" width="18.8" height="15.4" rx="6.9" fill="#f7b733" stroke="#e0a419" stroke-width="1.2"/>
<rect x="256.0" y="180.3" width="18.8" height="15.4" rx="6.9" fill="#ffd23f" stroke="#e0a419" stroke-width="1.2"/>
<rect x="276.0" y="180.3" width="18.8" height="15.4" rx="6.9" fill="#ffdf5e" stroke="#e0a419" stroke-width="1.2"/>
<rect x="296.0" y="180.3" width="18.8" height="15.4" rx="6.9" fill="#f7b733" stroke="#e0a419" stroke-width="1.2"/>
<rect x="316.0" y="180.3" width="18.8" height="15.4" rx="6.9" fill="#ffd23f" stroke="#e0a419" stroke-width="1.2"/>
<rect x="186.0" y="195.0" width="18.8" height="15.4" rx="6.9" fill="#ffd23f" stroke="#e0a419" stroke-width="1.2"/>
<rect x="206.0" y="195.0" width="18.8" height="15.4" rx="6.9" fill="#ffdf5e" stroke="#e0a419" stroke-width="1.2"/>
<rect x="226.0" y="195.0" width="18.8" height="15.4" rx="6.9" fill="#f7b733" stroke="#e0a419" stroke-width="1.2"/>
<rect x="246.0" y="195.0" width="18.8" height="15.4" rx="6.9" fill="#ffd23f" stroke="#e0a419" stroke-width="1.2"/>
<rect x="266.0" y="195.0" width="18.8" height="15.4" rx="6.9" fill="#ffdf5e" stroke="#e0a419" stroke-width="1.2"/>
<rect x="286.0" y="195.0" width="18.8" height="15.4" rx="6.9" fill="#f7b733" stroke="#e0a419" stroke-width="1.2"/>
<rect x="306.0" y="195.0" width="18.8" height="15.4" rx="6.9" fill="#ffd23f" stroke="#e0a419" stroke-width="1.2"/>
<rect x="326.0" y="195.0" width="18.8" height="15.4" rx="6.9" fill="#ffdf5e" stroke="#e0a419" stroke-width="1.2"/>
<rect x="196.0" y="209.8" width="18.8" height="15.4" rx="6.9" fill="#ffdf5e" stroke="#e0a419" stroke-width="1.2"/>
<rect x="216.0" y="209.8" width="18.8" height="15.4" rx="6.9" fill="#f7b733" stroke="#e0a419" stroke-width="1.2"/>
<rect x="236.0" y="209.8" width="18.8" height="15.4" rx="6.9" fill="#ffd23f" stroke="#e0a419" stroke-width="1.2"/>
<rect x="256.0" y="209.8" width="18.8" height="15.4" rx="6.9" fill="#ffdf5e" stroke="#e0a419" stroke-width="1.2"/>
<rect x="276.0" y="209.8" width="18.8" height="15.4" rx="6.9" fill="#f7b733" stroke="#e0a419" stroke-width="1.2"/>
<rect x="296.0" y="209.8" width="18.8" height="15.4" rx="6.9" fill="#ffd23f" stroke="#e0a419" stroke-width="1.2"/>
<rect x="316.0" y="209.8" width="18.8" height="15.4" rx="6.9" fill="#ffdf5e" stroke="#e0a419" stroke-width="1.2"/>
<rect x="186.0" y="224.6" width="18.8" height="15.4" rx="6.9" fill="#ffdf5e" stroke="#e0a419" stroke-width="1.2"/>
<rect x="206.0" y="224.6" width="18.8" height="15.4" rx="6.9" fill="#f7b733" stroke="#e0a419" stroke-width="1.2"/>
<rect x="226.0" y="224.6" width="18.8" height="15.4" rx="6.9" fill="#ffd23f" stroke="#e0a419" stroke-width="1.2"/>
<rect x="246.0" y="224.6" width="18.8" height="15.4" rx="6.9" fill="#ffdf5e" stroke="#e0a419" stroke-width="1.2"/>
<rect x="266.0" y="224.6" width="18.8" height="15.4" rx="6.9" fill="#f7b733" stroke="#e0a419" stroke-width="1.2"/>
<rect x="286.0" y="224.6" width="18.8" height="15.4" rx="6.9" fill="#ffd23f" stroke="#e0a419" stroke-width="1.2"/>
<rect x="306.0" y="224.6" width="18.8" height="15.4" rx="6.9" fill="#ffdf5e" stroke="#e0a419" stroke-width="1.2"/>
<rect x="326.0" y="224.6" width="18.8" height="15.4" rx="6.9" fill="#f7b733" stroke="#e0a419" stroke-width="1.2"/>
<rect x="196.0" y="239.3" width="18.8" height="15.4" rx="6.9" fill="#f7b733" stroke="#e0a419" stroke-width="1.2"/>
<rect x="216.0" y="239.3" width="18.8" height="15.4" rx="6.9" fill="#ffd23f" stroke="#e0a419" stroke-width="1.2"/>
<rect x="236.0" y="239.3" width="18.8" height="15.4" rx="6.9" fill="#ffdf5e" stroke="#e0a419" stroke-width="1.2"/>
<rect x="256.0" y="239.3" width="18.8" height="15.4" rx="6.9" fill="#f7b733" stroke="#e0a419" stroke-width="1.2"/>
<rect x="276.0" y="239.3" width="18.8" height="15.4" rx="6.9" fill="#ffd23f" stroke="#e0a419" stroke-width="1.2"/>
<rect x="296.0" y="239.3" width="18.8" height="15.4" rx="6.9" fill="#ffdf5e" stroke="#e0a419" stroke-width="1.2"/>
<rect x="316.0" y="239.3" width="18.8" height="15.4" rx="6.9" fill="#f7b733" stroke="#e0a419" stroke-width="1.2"/>
<rect x="186.0" y="254.1" width="18.8" height="15.4" rx="6.9" fill="#f7b733" stroke="#e0a419" stroke-width="1.2"/>
<rect x="206.0" y="254.1" width="18.8" height="15.4" rx="6.9" fill="#ffd23f" stroke="#e0a419" stroke-width="1.2"/>
<rect x="226.0" y="254.1" width="18.8" height="15.4" rx="6.9" fill="#ffdf5e" stroke="#e0a419" stroke-width="1.2"/>
<rect x="246.0" y="254.1" width="18.8" height="15.4" rx="6.9" fill="#f7b733" stroke="#e0a419" stroke-width="1.2"/>
<rect x="266.0" y="254.1" width="18.8" height="15.4" rx="6.9" fill="#ffd23f" stroke="#e0a419" stroke-width="1.2"/>
<rect x="286.0" y="254.1" width="18.8" height="15.4" rx="6.9" fill="#ffdf5e" stroke="#e0a419" stroke-width="1.2"/>
<rect x="306.0" y="254.1" width="18.8" height="15.4" rx="6.9" fill="#f7b733" stroke="#e0a419" stroke-width="1.2"/>
<rect x="326.0" y="254.1" width="18.8" height="15.4" rx="6.9" fill="#ffd23f" stroke="#e0a419" stroke-width="1.2"/>
<rect x="196.0" y="268.8" width="18.8" height="15.4" rx="6.9" fill="#ffd23f" stroke="#e0a419" stroke-width="1.2"/>
<rect x="216.0" y="268.8" width="18.8" height="15.4" rx="6.9" fill="#ffdf5e" stroke="#e0a419" stroke-width="1.2"/>
<rect x="236.0" y="268.8" width="18.8" height="15.4" rx="6.9" fill="#f7b733" stroke="#e0a419" stroke-width="1.2"/>
<rect x="256.0" y="268.8" width="18.8" height="15.4" rx="6.9" fill="#ffd23f" stroke="#e0a419" stroke-width="1.2"/>
<rect x="276.0" y="268.8" width="18.8" height="15.4" rx="6.9" fill="#ffdf5e" stroke="#e0a419" stroke-width="1.2"/>
<rect x="296.0" y="268.8" width="18.8" height="15.4" rx="6.9" fill="#f7b733" stroke="#e0a419" stroke-width="1.2"/>
<rect x="316.0" y="268.8" width="18.8" height="15.4" rx="6.9" fill="#ffd23f" stroke="#e0a419" stroke-width="1.2"/>
<rect x="186.0" y="283.6" width="18.8" height="15.4" rx="6.9" fill="#ffd23f" stroke="#e0a419" stroke-width="1.2"/>
<rect x="206.0" y="283.6" width="18.8" height="15.4" rx="6.9" fill="#ffdf5e" stroke="#e0a419" stroke-width="1.2"/>
<rect x="226.0" y="283.6" width="18.8" height="15.4" rx="6.9" fill="#f7b733" stroke="#e0a419" stroke-width="1.2"/>
<rect x="246.0" y="283.6" width="18.8" height="15.4" rx="6.9" fill="#ffd23f" stroke="#e0a419" stroke-width="1.2"/>
<rect x="266.0" y="283.6" width="18.8" height="15.4" rx="6.9" fill="#ffdf5e" stroke="#e0a419" stroke-width="1.2"/>
<rect x="286.0" y="283.6" width="18.8" height="15.4" rx="6.9" fill="#f7b733" stroke="#e0a419" stroke-width="1.2"/>
<rect x="306.0" y="283.6" width="18.8" height="15.4" rx="6.9" fill="#ffd23f" stroke="#e0a419" stroke-width="1.2"/>
<rect x="326.0" y="283.6" width="18.8" height="15.4" rx="6.9" fill="#ffdf5e" stroke="#e0a419" stroke-width="1.2"/>
<rect x="196.0" y="298.4" width="18.8" height="15.4" rx="6.9" fill="#ffdf5e" stroke="#e0a419" stroke-width="1.2"/>
<rect x="216.0" y="298.4" width="18.8" height="15.4" rx="6.9" fill="#f7b733" stroke="#e0a419" stroke-width="1.2"/>
<rect x="236.0" y="298.4" width="18.8" height="15.4" rx="6.9" fill="#ffd23f" stroke="#e0a419" stroke-width="1.2"/>
<rect x="256.0" y="298.4" width="18.8" height="15.4" rx="6.9" fill="#ffdf5e" stroke="#e0a419" stroke-width="1.2"/>
<rect x="276.0" y="298.4" width="18.8" height="15.4" rx="6.9" fill="#f7b733" stroke="#e0a419" stroke-width="1.2"/>
<rect x="296.0" y="298.4" width="18.8" height="15.4" rx="6.9" fill="#ffd23f" stroke="#e0a419" stroke-width="1.2"/>
<rect x="316.0" y="298.4" width="18.8" height="15.4" rx="6.9" fill="#ffdf5e" stroke="#e0a419" stroke-width="1.2"/>
<rect x="186.0" y="313.1" width="18.8" height="15.4" rx="6.9" fill="#ffdf5e" stroke="#e0a419" stroke-width="1.2"/>
<rect x="206.0" y="313.1" width="18.8" height="15.4" rx="6.9" fill="#f7b733" stroke="#e0a419" stroke-width="1.2"/>
<rect x="226.0" y="313.1" width="18.8" height="15.4" rx="6.9" fill="#ffd23f" stroke="#e0a419" stroke-width="1.2"/>
<rect x="246.0" y="313.1" width="18.8" height="15.4" rx="6.9" fill="#ffdf5e" stroke="#e0a419" stroke-width="1.2"/>
<rect x="266.0" y="313.1" width="18.8" height="15.4" rx="6.9" fill="#f7b733" stroke="#e0a419" stroke-width="1.2"/>
<rect x="286.0" y="313.1" width="18.8" height="15.4" rx="6.9" fill="#ffd23f" stroke="#e0a419" stroke-width="1.2"/>
<rect x="306.0" y="313.1" width="18.8" height="15.4" rx="6.9" fill="#ffdf5e" stroke="#e0a419" stroke-width="1.2"/>
<rect x="326.0" y="313.1" width="18.8" height="15.4" rx="6.9" fill="#f7b733" stroke="#e0a419" stroke-width="1.2"/>
<rect x="196.0" y="327.9" width="18.8" height="15.4" rx="6.9" fill="#f7b733" stroke="#e0a419" stroke-width="1.2"/>
<rect x="216.0" y="327.9" width="18.8" height="15.4" rx="6.9" fill="#ffd23f" stroke="#e0a419" stroke-width="1.2"/>
<rect x="236.0" y="327.9" width="18.8" height="15.4" rx="6.9" fill="#ffdf5e" stroke="#e0a419" stroke-width="1.2"/>
<rect x="256.0" y="327.9" width="18.8" height="15.4" rx="6.9" fill="#f7b733" stroke="#e0a419" stroke-width="1.2"/>
<rect x="276.0" y="327.9" width="18.8" height="15.4" rx="6.9" fill="#ffd23f" stroke="#e0a419" stroke-width="1.2"/>
<rect x="296.0" y="327.9" width="18.8" height="15.4" rx="6.9" fill="#ffdf5e" stroke="#e0a419" stroke-width="1.2"/>
<rect x="316.0" y="327.9" width="18.8" height="15.4" rx="6.9" fill="#f7b733" stroke="#e0a419" stroke-width="1.2"/>
<rect x="186.0" y="342.6" width="18.8" height="15.4" rx="6.9" fill="#f7b733" stroke="#e0a419" stroke-width="1.2"/>
<rect x="206.0" y="342.6" width="18.8" height="15.4" rx="6.9" fill="#ffd23f" stroke="#e0a419" stroke-width="1.2"/>
<rect x="226.0" y="342.6" width="18.8" height="15.4" rx="6.9" fill="#ffdf5e" stroke="#e0a419" stroke-width="1.2"/>
<rect x="246.0" y="342.6" width="18.8" height="15.4" rx="6.9" fill="#f7b733" stroke="#e0a419" stroke-width="1.2"/>
<rect x="266.0" y="342.6" width="18.8" height="15.4" rx="6.9" fill="#ffd23f" stroke="#e0a419" stroke-width="1.2"/>
<rect x="286.0" y="342.6" width="18.8" height="15.4" rx="6.9" fill="#ffdf5e" stroke="#e0a419" stroke-width="1.2"/>
<rect x="306.0" y="342.6" width="18.8" height="15.4" rx="6.9" fill="#f7b733" stroke="#e0a419" stroke-width="1.2"/>
<rect x="326.0" y="342.6" width="18.8" height="15.4" rx="6.9" fill="#ffd23f" stroke="#e0a419" stroke-width="1.2"/>
<rect x="196.0" y="357.4" width="18.8" height="15.4" rx="6.9" fill="#ffd23f" stroke="#e0a419" stroke-width="1.2"/>
<rect x="216.0" y="357.4" width="18.8" height="15.4" rx="6.9" fill="#ffdf5e" stroke="#e0a419" stroke-width="1.2"/>
<rect x="236.0" y="357.4" width="18.8" height="15.4" rx="6.9" fill="#f7b733" stroke="#e0a419" stroke-width="1.2"/>
<rect x="256.0" y="357.4" width="18.8" height="15.4" rx="6.9" fill="#ffd23f" stroke="#e0a419" stroke-width="1.2"/>
<rect x="276.0" y="357.4" width="18.8" height="15.4" rx="6.9" fill="#ffdf5e" stroke="#e0a419" stroke-width="1.2"/>
<rect x="296.0" y="357.4" width="18.8" height="15.4" rx="6.9" fill="#f7b733" stroke="#e0a419" stroke-width="1.2"/>
<rect x="316.0" y="357.4" width="18.8" height="15.4" rx="6.9" fill="#ffd23f" stroke="#e0a419" stroke-width="1.2"/>
</g>
<ellipse cx="235.0" cy="221.75" rx="21.0" ry="78.75" fill="#ffffff" opacity="0.18"/>
<path d="M196,178 a60,60 0 0 1 120,0 L316,293 a60,60 0 0 1 -120,0 Z" fill="none" stroke="#c98a12" stroke-width="3"/>
<path d="M250,124.0 q-14,-30 4,-46 M262,124.0 q14,-30 -2,-48 M256,118 l0,-42" stroke="#e7cf7a" stroke-width="4" fill="none" stroke-linecap="round"/></svg>