<svg xmlns="http://www.w3.org/2000/svg" width="512" height="512" viewBox="0 0 512 512"><defs>
<linearGradient id="blue" x1="0" y1="0" x2="0" y2="1">
 <stop offset="0" stop-color="#4aa3ff"/><stop offset="0.5" stop-color="#1f6fe0"/>
 <stop offset="1" stop-color="#0b3f9c"/></linearGradient>
<linearGradient id="gloss" x1="0" y1="0" x2="0" y2="1">
 <stop offset="0" stop-color="#ffffff" stop-opacity="0.75"/>
 <stop offset="1" stop-color="#ffffff" stop-opacity="0"/></linearGradient>
<linearGradient id="metal" x1="0" y1="0" x2="0" y2="1">
 <stop offset="0" stop-color="#ffffff"/><stop offset="0.5" stop-color="#dbe4ee"/>
 <stop offset="1" stop-color="#9fb0c3"/></linearGradient>
<linearGradient id="cream" x1="0" y1="0" x2="0" y2="1">
 <stop offset="0" stop-color="#fff8e6"/><stop offset="1" stop-color="#f3e2b0"/></linearGradient>
<radialGradient id="hole" cx="0.5" cy="0.4" r="0.7">
 <stop offset="0" stop-color="#2a3340"/><stop offset="1" stop-color="#0d1218"/></radialGradient>
<filter id="ds" x="-25%" y="-25%" width="150%" height="150%">
 <feDropShadow dx="0" dy="7" stdDeviation="9" flood-color="#00133a" flood-opacity="0.4"/></filter>
<linearGradient id="leaf6" x1="0" y1="0" x2="0" y2="1"><stop offset="0" stop-color="#7ec850"/><stop offset="1" stop-color="#3f8f2e"/></linearGradient></defs><rect x="40" y="40" width="432" height="432" rx="104" fill="url(#metal)" filter="url(#ds)"/><rect x="40" y="40" width="432" height="432" rx="104" fill="none" stroke="#ffffff" stroke-opacity="0.25" stroke-width="4"/><path d="M64 144 Q64 64 144 64 L368 64 Q448 64 448 144 L448 232 Q256 296 64 232 Z" fill="url(#gloss)"/><path d="M256 96 L392 144 L392 292 Q392 388 256 444 Q120 388 120 292 L120 144 Z" fill="url(#blue)" stroke="#0b3f9c" stroke-width="5"/><path d="M256 118 L376 160 L376 290 Q376 380 256 430 Q136 380 136 290 L136 160 Z" fill="url(#cream)" stroke="#caa74e" stroke-width="4"/><clipPath id="cc6"><path d="M198,150 a58,58 0 0 1 116,0 L314,297 a58,58 0 0 1 -116,0 Z"/></clipPath>
<path d="M256,331.8 C177.7,293.5 193.35999999999999,385.75 247.3,416.5 C232.8,334.5 235.7,293.5 256,331.8 Z" fill="url(#leaf6)"/>
<path d="M256,331.8 C334.3,293.5 318.64,385.75 264.7,416.5 C279.2,334.5 276.3,293.5 256,331.8 Z" fill="url(#leaf6)"/>
<path d="M198,150 a58,58 0 0 1 116,0 L314,297 a58,58 0 0 1 -116,0 Z" fill="#f6c945"/>
<g clip-path="url(#cc6)">
<rect x="188.3" y="109.4" width="18.2" height="14.9" rx="6.7" fill="#f7b733" stroke="#e0a419" stroke-width="1.2"/>
<rect x="207.7" y="109.4" width="18.2" height="14.9" rx="6.7" fill="#ffdf5e" stroke="#e0a419" stroke-width="1.2"/>
<rect x="227.0" y="109.4" width="18.2" height="14.9" rx="6.7" fill="#f7b733" stroke="#e0a419" stroke-width="1.2"/>
<rect x="246.3" y="109.4" width="18.2" height="14.9" rx="6.7" fill="#ffdf5e" stroke="#e0a419" stroke-width="1.2"/>
<rect x="265.7" y="109.4" width="18.2" height="14.9" rx="6.7" fill="#ffd23f" stroke="#e0a419" stroke-width="1.2"/>
<rect x="285.0" y="109.4" width="18.2" height="14.9" rx="6.7" fill="#ffdf5e" stroke="#e0a419" stroke-width="1.2"/>
<rect x="304.3" y="109.4" width="18.2" height="14.9" rx="6.7" fill="#ffd23f" stroke="#e0a419" stroke-width="1.2"/>
<rect x="323.7" y="109.4" width="18.2" height="14.9" rx="6.7" fill="#f7b733" stroke="#e0a419" stroke-width="1.2"/>
<rect x="198.0" y="123.7" width="18.2" height="14.9" rx="6.7" fill="#ffd23f" stroke="#e0a419" stroke-width="1.2"/>
<rect x="217.3" y="123.7" width="18.2" height="14.9" rx="6.7" fill="#f7b733" stroke="#e0a419" stroke-width="1.2"/>
<rect x="236.7" y="123.7" width="18.2" height="14.9" rx="6.7" fill="#ffdf5e" stroke="#e0a419" stroke-width="1.2"/>
<rect x="256.0" y="123.7" width="18.2" height="14.9" rx="6.7" fill="#f7b733" stroke="#e0a419" stroke-width="1.2"/>
<rect x="275.3" y="123.7" width="18.2" height="14.9" rx="6.7" fill="#ffdf5e" stroke="#e0a419" stroke-width="1.2"/>
<rect x="294.7" y="123.7" width="18.2" height="14.9" rx="6.7" fill="#ffd23f" stroke="#e0a419" stroke-width="1.2"/>
<rect x="314.0" y="123.7" width="18.2" height="14.9" rx="6.7" fill="#f7b733" stroke="#e0a419" stroke-width="1.2"/>
<rect x="333.3" y="123.7" width="18.2" height="14.9" rx="6.7" fill="#ffd23f" stroke="#e0a419" stroke-width="1.2"/>
<rect x="188.3" y="137.9" width="18.2" height="14.9" rx="6.7" fill="#ffd23f" stroke="#e0a419" stroke-width="1.2"/>
<rect x="207.7" y="137.9" width="18.2" height="14.9" rx="6.7" fill="#f7b733" stroke="#e0a419" stroke-width="1.2"/>
<rect x="227.0" y="137.9" width="18.2" height="14.9" rx="6.7" fill="#ffd23f" stroke="#e0a419" stroke-width="1.2"/>
<rect x="246.3" y="137.9" width="18.2" height="14.9" rx="6.7" fill="#f7b733" stroke="#e0a419" stroke-width="1.2"/>
<rect x="265.7" y="137.9" width="18.2" height="14.9" rx="6.7" fill="#ffdf5e" stroke="#e0a419" stroke-width="1.2"/>
<rect x="285.0" y="137.9" width="18.2" height="14.9" rx="6.7" fill="#f7b733" stroke="#e0a419" stroke-width="1.2"/>
<rect x="304.3" y="137.9" width="18.2" height="14.9" rx="6.7" fill="#ffdf5e" stroke="#e0a419" stroke-width="1.2"/>
<rect x="323.7" y="137.9" width="18.2" height="14.9" rx="6.7" fill="#ffd23f" stroke="#e0a419" stroke-width="1.2"/>
<rect x="198.0" y="152.2" width="18.2" height="14.9" rx="6.7" fill="#ffdf5e" stroke="#e0a419" stroke-width="1.2"/>
<rect x="217.3" y="152.2" width="18.2" height="14.9" rx="6.7" fill="#ffd23f" stroke="#e0a419" stroke-width="1.2"/>
<rect x="236.7" y="152.2" width="18.2" height="14.9" rx="6.7" fill="#f7b733" stroke="#e0a419" stroke-width="1.2"/>
<rect x="256.0" y="152.2" width="18.2" height="14.9" rx="6.7" fill="#ffd23f" stroke="#e0a419" stroke-width="1.2"/>
<rect x="275.3" y="152.2" width="18.2" height="14.9" rx="6.7" fill="#f7b733" stroke="#e0a419" stroke-width="1.2"/>
<rect x="294.7" y="152.2" width="18.2" height="14.9" rx="6.7" fill="#ffdf5e" stroke="#e0a419" stroke-width="1.2"/>
<rect x="314.0" y="152.2" width="18.2" height="14.9" rx="6.7" fill="#ffd23f" stroke="#e0a419" stroke-width="1.2"/>
<rect x="333.3" y="152.2" width="18.2" height="14.9" rx="6.7" fill="#ffdf5e" stroke="#e0a419" stroke-width="1.2"/>
<rect x="188.3" y="166.5" width="18.2" height="14.9" rx="6.7" fill="#ffdf5e" stroke="#e0a419" stroke-width="1.2"/>
<rect x="207.7" y="166.5" width="18.2" height="14.9" rx="6.7" fill="#ffd23f" stroke="#e0a419" stroke-width="1.2"/>
<rect x="227.0" y="166.5" width="18.2" height="14.9" rx="6.7" fill="#ffdf5e" stroke="#e0a419" stroke-width="1.2"/>
<rect x="246.3" y="166.5" width="18.2" height="14.9" rx="6.7" fill="#ffd23f" stroke="#e0a419" stroke-width="1.2"/>
<rect x="265.7" y="166.5" width="18.2" height="14.9" rx="6.7" fill="#f7b733" stroke="#e0a419" stroke-width="1.2"/>
<rect x="285.0" y="166.5" width="18.2" height="14.9" rx="6.7" fill="#ffd23f" stroke="#e0a419" stroke-width="1.2"/>
<rect x="304.3" y="166.5" width="18.2" height="14.9" rx="6.7" fill="#f7b733" stroke="#e0a419" stroke-width="1.2"/>
<rect x="323.7" y="166.5" width="18.2" height="14.9" rx="6.7" fill="#ffdf5e" stroke="#e0a419" stroke-width="1.2"/>
<rect x="198.0" y="180.7" width="18.2" height="14.9" rx="6.7" fill="#f7b733" stroke="#e0a419" stroke-width="1.2"/>
<rect x="217.3" y="180.7" width="18.2" height="14.9" rx="6.7" fill="#ffdf5e" stroke="#e0a419" stroke-width="1.2"/>
<rect x="236.7" y="180.7" width="18.2" height="14.9" rx="6.7" fill="#ffd23f" stroke="#e0a419" stroke-width="1.2"/>
<rect x="256.0" y="180.7" width="18.2" height="14.9" rx="6.7" fill="#ffdf5e" stroke="#e0a419" stroke-width="1.2"/>
<rect x="275.3" y="180.7" width="18.2" height="14.9" rx="6.7" fill="#ffd23f" stroke="#e0a419" stroke-width="1.2"/>
<rect x="294.7" y="180.7" width="18.2" height="14.9" rx="6.7" fill="#f7b733" stroke="#e0a419" stroke-width="1.2"/>
<rect x="314.0" y="180.7" width="18.2" height="14.9" rx="6.7" fill="#ffdf5e" stroke="#e0a419" stroke-width="1.2"/>
<rect x="333.3" y="180.7" width="18.2" height="14.9" rx="6.7" fill="#f7b733" stroke="#e0a419" stroke-width="1.2"/>
<rect x="188.3" y="195.0" width="18.2" height="14.9" rx="6.7" fill="#f7b733" stroke="#e0a419" stroke-width="1.2"/>
<rect x="207.7" y="195.0" width="18.2" height="14.9" rx="6.7" fill="#ffdf5e" stroke="#e0a419" stroke-width="1.2"/>
<rect x="227.0" y="195.0" width="18.2" height="14.9" rx="6.7" fill="#f7b733" stroke="#e0a419" stroke-width="1.2"/>
<rect x="246.3" y="195.0" width="18.2" height="14.9" rx="6.7" fill="#ffdf5e" stroke="#e0a419" stroke-width="1.2"/>
<rect x="265.7" y="195.0" width="18.2" height="14.9" rx="6.7" fill="#ffd23f" stroke="#e0a419" stroke-width="1.2"/>
<rect x="285.0" y="195.0" width="18.2" height="14.9" rx="6.7" fill="#ffdf5e" stroke="#e0a419" stroke-width="1.2"/>
<rect x="304.3" y="195.0" width="18.2" height="14.9" rx="6.7" fill="#ffd23f" stroke="#e0a419" stroke-width="1.2"/>
<rect x="323.7" y="195.0" width="18.2" height="14.9" rx="6.7" fill="#f7b733" stroke="#e0a419" stroke-width="1.2"/>
<rect x="198.0" y="209.3" width="18.2" height="14.9" rx="6.7" fill="#ffd23f" stroke="#e0a419" stroke-width="1.2"/>
<rect x="217.3" y="209.3" width="18.2" height="14.9" rx="6.7" fill="#f7b733" stroke="#e0a419" stroke-width="1.2"/>
<rect x="236.7" y="209.3" width="18.2" height="14.9" rx="6.7" fill="#ffdf5e" stroke="#e0a419" stroke-width="1.2"/>
<rect x="256.0" y="209.3" width="18.2" height="14.9" rx="6.7" fill="#f7b733" stroke="#e0a419" stroke-width="1.2"/>
<rect x="275.3" y="209.3" width="18.2" height="14.9" rx="6.7" fill="#ffdf5e" stroke="#e0a419" stroke-width="1.2"/>
<rect x="294.7" y="209.3" width="18.2" height="14.9" rx="6.7" fill="#ffd23f" stroke="#e0a419" stroke-width="1.2"/>
<rect x="314.0" y="209.3" width="18.2" height="14.9" rx="6.7" fill="#f7b733" stroke="#e0a419" stroke-width="1.2"/>
<rect x="333.3" y="209.3" width="18.2" height="14.9" rx="6.7" fill="#ffd23f" stroke="#e0a419" stroke-width="1.2"/>
<rect x="188.3" y="223.5" width="18.2" height="14.9" rx="6.7" fill="#ffd23f" stroke="#e0a419" stroke-width="1.2"/>
<rect x="207.7" y="223.5" width="18.2" height="14.9" rx="6.7" fill="#f7b733" stroke="#e0a419" stroke-width="1.2"/>
<rect x="227.0" y="223.5" width="18.2" height="14.9" rx="6.7" fill="#ffd23f" stroke="#e0a419" stroke-width="1.2"/>
<rect x="246.3" y="223.5" width="18.2" height="14.9" rx="6.7" fill="#f7b733" stroke="#e0a419" stroke-width="1.2"/>
<rect x="265.7" y="223.5" width="18.2" height="14.9" rx="6.7" fill="#ffdf5e" stroke="#e0a419" stroke-width="1.2"/>
<rect x="285.0" y="223.5" width="18.2" height="14.9" rx="6.7" fill="#f7b733" stroke="#e0a419" stroke-width="1.2"/>
<rect x="304.3" y="223.5" width="18.2" height="14.9" rx="6.7" fill="#ffdf5e" stroke="#e0a419" stroke-width="1.2"/>
<rect x="323.7" y="223.5" width="18.2" height="14.9" rx="6.7" fill="#ffd23f" stroke="#e0a419" stroke-width="1.2"/>
<rect x="198.0" y="237.8" width="18.2" height="14.9" rx="6.7" fill="#ffdf5e" stroke="#e0a419" stroke-width="1.2"/>
<rect x="217.3" y="237.8" width="18.2" height="14.9" rx="6.7" fill="#ffd23f" stroke="#e0a419" stroke-width="1.2"/>
<rect x="236.7" y="237.8" width="18.2" height="14.9" rx="6.7" fill="#f7b733" stroke="#e0a419" stroke-width="1.2"/>
<rect x="256.0" y="237.8" width="18.2" height="14.9" rx="6.7" fill="#ffd23f" stroke="#e0a419" stroke-width="1.2"/>
<rect x="275.3" y="237.8" width="18.2" height="14.9" rx="6.7" fill="#f7b733" stroke="#e0a419" stroke-width="1.2"/>
<rect x="294.7" y="237.8" width="18.2" height="14.9" rx="6.7" fill="#ffdf5e" stroke="#e0a419" stroke-width="1.2"/>
<rect x="314.0" y="237.8" width="18.2" height="14.9" rx="6.7" fill="#ffd23f" stroke="#e0a419" stroke-width="1.2"/>
<rect x="333.3" y="237.8" width="18.2" height="14.9" rx="6.7" fill="#ffdf5e" stroke="#e0a419" stroke-width="1.2"/>
<rect x="188.3" y="252.1" width="18.2" height="14.9" rx="6.7" fill="#ffdf5e" stroke="#e0a419" stroke-width="1.2"/>
<rect x="207.7" y="252.1" width="18.2" height="14.9" rx="6.7" fill="#ffd23f" stroke="#e0a419" stroke-width="1.2"/>
<rect x="227.0" y="252.1" width="18.2" height="14.9" rx="6.7" fill="#ffdf5e" stroke="#e0a419" stroke-width="1.2"/>
<rect x="246.3" y="252.1" width="18.2" height="14.9" rx="6.7" fill="#ffd23f" stroke="#e0a419" stroke-width="1.2"/>
<rect x="265.7" y="252.1" width="18.2" height="14.9" rx="6.7" fill="#f7b733" stroke="#e0a419" stroke-width="1.2"/>
<rect x="285.0" y="252.1" width="18.2" height="14.9" rx="6.7" fill="#ffd23f" stroke="#e0a419" stroke-width="1.2"/>
<rect x="304.3" y="252.1" width="18.2" height="14.9" rx="6.7" fill="#f7b733" stroke="#e0a419" stroke-width="1.2"/>
<rect x="323.7" y="252.1" width="18.2" height="14.9" rx="6.7" fill="#ffdf5e" stroke="#e0a419" stroke-width="1.2"/>
<rect x="198.0" y="266.3" width="18.2" height="14.9" rx="6.7" fill="#f7b733" stroke="#e0a419" stroke-width="1.2"/>
<rect x="217.3" y="266.3" width="18.2" height="14.9" rx="6.7" fill="#ffdf5e" stroke="#e0a419" stroke-width="1.2"/>
<rect x="236.7" y="266.3" width="18.2" height="14.9" rx="6.7" fill="#ffd23f" stroke="#e0a419" stroke-width="1.2"/>
<rect x="256.0" y="266.3" width="18.2" height="14.9" rx="6.7" fill="#ffdf5e" stroke="#e0a419" stroke-width="1.2"/>
<rect x="275.3" y="266.3" width="18.2" height="14.9" rx="6.7" fill="#ffd23f" stroke="#e0a419" stroke-width="1.2"/>
<rect x="294.7" y="266.3" width="18.2" height="14.9" rx="6.7" fill="#f7b733" stroke="#e0a419" stroke-width="1.2"/>
<rect x="314.0" y="266.3" width="18.2" height="14.9" rx="6.7" fill="#ffdf5e" stroke="#e0a419" stroke-width="1.2"/>
<rect x="333.3" y="266.3" width="18.2" height="14.9" rx="6.7" fill="#f7b733" stroke="#e0a419" stroke-width="1.2"/>
<rect x="188.3" y="280.6" width="18.2" height="14.9" rx="6.7" fill="#f7b733" stroke="#e0a419" stroke-width="1.2"/>
<rect x="207.7" y="280.6" width="18.2" height="14.9" rx="6.7" fill="#ffdf5e" stroke="#e0a419" stroke-width="1.2"/>
<rect x="227.0" y="280.6" width="18.2" height="14.9" rx="6.7" fill="#f7b733" stroke="#e0a419" stroke-width="1.2"/>
<rect x="246.3" y="280.6" width="18.2" height="14.9" rx="6.7" fill="#ffdf5e" stroke="#e0a419" stroke-width="1.2"/>
<rect x="265.7" y="280.6" width="18.2" height="14.9" rx="6.7" fill="#ffd23f" stroke="#e0a419" stroke-width="1.2"/>
<rect x="285.0" y="280.6" width="18.2" height="14.9" rx="6.7" fill="#ffdf5e" stroke="#e0a419" stroke-width="1.2"/>
<rect x="304.3" y="280.6" width="18.2" height="14.9" rx="6.7" fill="#ffd23f" stroke="#e0a419" stroke-width="1.2"/>
<rect x="323.7" y="280.6" width="18.2" height="14.9" rx="6.7" fill="#f7b733" stroke="#e0a419" stroke-width="1.2"/>
<rect x="198.0" y="294.9" width="18.2" height="14.9" rx="6.7" fill="#ffd23f" stroke="#e0a419" stroke-width="1.2"/>
<rect x="217.3" y="294.9" width="18.2" height="14.9" rx="6.7" fill="#f7b733" stroke="#e0a419" stroke-width="1.2"/>
<rect x="236.7" y="294.9" width="18.2" height="14.9" rx="6.7" fill="#ffdf5e" stroke="#e0a419" stroke-width="1.2"/>
<rect x="256.0" y="294.9" width="18.2" height="14.9" rx="6.7" fill="#f7b733" stroke="#e0a419" stroke-width="1.2"/>
<rect x="275.3" y="294.9" width="18.2" height="14.9" rx="6.7" fill="#ffdf5e" stroke="#e0a419" stroke-width="1.2"/>
<rect x="294.7" y="294.9" width="18.2" height="14.9" rx="6.7" fill="#ffd23f" stroke="#e0a419" stroke-width="1.2"/>
<rect x="314.0" y="294.9" width="18.2" height="14.9" rx="6.7" fill="#f7b733" stroke="#e0a419" stroke-width="1.2"/>
<rect x="333.3" y="294.9" width="18.2" height="14.9" rx="6.7" fill="#ffd23f" stroke="#e0a419" stroke-width="1.2"/>
<rect x="188.3" y="309.2" width="18.2" height="14.9" rx="6.7" fill="#ffd23f" stroke="#e0a419" stroke-width="1.2"/>
<rect x="207.7" y="309.2" width="18.2" height="14.9" rx="6.7" fill="#f7b733" stroke="#e0a419" stroke-width="1.2"/>
<rect x="227.0" y="309.2" width="18.2" height="14.9" rx="6.7" fill="#ffd23f" stroke="#e0a419" stroke-width="1.2"/>
<rect x="246.3" y="309.2" width="18.2" height="14.9" rx="6.7" fill="#f7b733" stroke="#e0a419" stroke-width="1.2"/>
<rect x="265.7" y="309.2" width="18.2" height="14.9" rx="6.7" fill="#ffdf5e" stroke="#e0a419" stroke-width="1.2"/>
<rect x="285.0" y="309.2" width="18.2" height="14.9" rx="6.7" fill="#f7b733" stroke="#e0a419" stroke-width="1.2"/>
<rect x="304.3" y="309.2" width="18.2" height="14.9" rx="6.7" fill="#ffdf5e" stroke="#e0a419" stroke-width="1.2"/>
<rect x="323.7" y="309.2" width="18.2" height="14.9" rx="6.7" fill="#ffd23f" stroke="#e0a419" stroke-width="1.2"/>
<rect x="198.0" y="323.4" width="18.2" height="14.9" rx="6.7" fill="#ffdf5e" stroke="#e0a419" stroke-width="1.2"/>
<rect x="217.3" y="323.4" width="18.2" height="14.9" rx="6.7" fill="#ffd23f" stroke="#e0a419" stroke-width="1.2"/>
<rect x="236.7" y="323.4" width="18.2" height="14.9" rx="6.7" fill="#f7b733" stroke="#e0a419" stroke-width="1.2"/>
<rect x="256.0" y="323.4" width="18.2" height="14.9" rx="6.7" fill="#ffd23f" stroke="#e0a419" stroke-width="1.2"/>
<rect x="275.3" y="323.4" width="18.2" height="14.9" rx="6.7" fill="#f7b733" stroke="#e0a419" stroke-width="1.2"/>
<rect x="294.7" y="323.4" width="18.2" height="14.9" rx="6.7" fill="#ffdf5e" stroke="#e0a419" stroke-width="1.2"/>
<rect x="314.0" y="323.4" width="18.2" height="14.9" rx="6.7" fill="#ffd23f" stroke="#e0a419" stroke-width="1.2"/>
<rect x="333.3" y="323.4" width="18.2" height="14.9" rx="6.7" fill="#ffdf5e" stroke="#e0a419" stroke-width="1.2"/>
<rect x="188.3" y="337.7" width="18.2" height="14.9" rx="6.7" fill="#ffdf5e" stroke="#e0a419" stroke-width="1.2"/>
<rect x="207.7" y="337.7" width="18.2" height="14.9" rx="6.7" fill="#ffd23f" stroke="#e0a419" stroke-width="1.2"/>
<rect x="227.0" y="337.7" width="18.2" height="14.9" rx="6.7" fill="#ffdf5e" stroke="#e0a419" stroke-width="1.2"/>
<rect x="246.3" y="337.7" width="18.2" height="14.9" rx="6.7" fill="#ffd23f" stroke="#e0a419" stroke-width="1.2"/>
<rect x="265.7" y="337.7" width="18.2" height="14.9" rx="6.7" fill="#f7b733" stroke="#e0a419" stroke-width="1.2"/>
<rect x="285.0" y="337.7" width="18.2" height="14.9" rx="6.7" fill="#ffd23f" stroke="#e0a419" stroke-width="1.2"/>
<rect x="304.3" y="337.7" width="18.2" height="14.9" rx="6.7" fill="#f7b733" stroke="#e0a419" stroke-width="1.2"/>
<rect x="323.7" y="337.7" width="18.2" height="14.9" rx="6.7" fill="#ffdf5e" stroke="#e0a419" stroke-width="1.2"/>
<rect x="198.0" y="352.0" width="18.2" height="14.9" rx="6.7" fill="#f7b733" stroke="#e0a419" stroke-width="1.2"/>
<rect x="217.3" y="352.0" width="18.2" height="14.9" rx="6.7" fill="#ffdf5e" stroke="#e0a419" stroke-width="1.2"/>
<rect x="236.7" y="352.0" width="18.2" height="14.9" rx="6.7" fill="#ffd23f" stroke="#e0a419" stroke-width="1.2"/>
<rect x="256.0" y="352.0" width="18.2" height="14.9" rx="6.7" fill="#ffdf5e" stroke="#e0a419" stroke-width="1.2"/>
<rect x="275.3" y="352.0" width="18.2" height="14.9" rx="6.7" fill="#ffd23f" stroke="#e0a419" stroke-width="1.2"/>
<rect x="294.7" y="352.0" width="18.2" height="14.9" rx="6.7" fill="#f7b733" stroke="#e0a419" stroke-width="1.2"/>
<rect x="314.0" y="352.0" width="18.2" height="14.9" rx="6.7" fill="#ffdf5e" stroke="#e0a419" stroke-width="1.2"/>
<rect x="333.3" y="352.0" width="18.2" height="14.9" rx="6.7" fill="#f7b733" stroke="#e0a419" stroke-width="1.2"/>
<rect x="188.3" y="366.2" width="18.2" height="14.9" rx="6.7" fill="#f7b733" stroke="#e0a419" stroke-width="1.2"/>
<rect x="207.7" y="366.2" width="18.2" height="14.9" rx="6.7" fill="#ffdf5e" stroke="#e0a419" stroke-width="1.2"/>
<rect x="227.0" y="366.2" width="18.2" height="14.9" rx="6.7" fill="#f7b733" stroke="#e0a419" stroke-width="1.2"/>
<rect x="246.3" y="366.2" width="18.2" height="14.9" rx="6.7" fill="#ffdf5e" stroke="#e0a419" stroke-width="1.2"/>
<rect x="265.7" y="366.2" width="18.2" height="14.9" rx="6.7" fill="#ffd23f" stroke="#e0a419" stroke-width="1.2"/>
<rect x="285.0" y="366.2" width="18.2" height="14.9" rx="6.7" fill="#ffdf5e" stroke="#e0a419" stroke-width="1.2"/>
<rect x="304.3" y="366.2" width="18.2" height="14.9" rx="6.7" fill="#ffd23f" stroke="#e0a419" stroke-width="1.2"/>
<rect x="323.7" y="366.2" width="18.2" height="14.9" rx="6.7" fill="#f7b733" stroke="#e0a419" stroke-width="1.2"/>
</g>
<ellipse cx="235.7" cy="201.25" rx="20.299999999999997" ry="92.25" fill="#ffffff" opacity="0.18"/>
<path d="M198,150 a58,58 0 0 1 116,0 L314,297 a58,58 0 0 1 -116,0 Z" fill="none" stroke="#c98a12" stroke-width="3"/>
<path d="M250,97.8 q-14,-30 4,-46 M262,97.8 q14,-30 -2,-48 M256,92 l0,-42" stroke="#e7cf7a" stroke-width="4" fill="none" stroke-linecap="round"/></svg>