<svg xmlns="http://www.w3.org/2000/svg" width="512" height="512" viewBox="0 0 512 512"><defs>
<linearGradient id="blue" x1="0" y1="0" x2="0" y2="1">
 <stop offset="0" stop-color="#4aa3ff"/><stop offset="0.5" stop-color="#1f6fe0"/>
 <stop offset="1" stop-color="#0b3f9c"/></linearGradient>
<linearGradient id="teal" x1="0" y1="0" x2="0" y2="1">
 <stop offset="0" stop-color="#37c6c0"/><stop offset="0.5" stop-color="#1b8f9a"/>
 <stop offset="1" stop-color="#0c5560"/></linearGradient>
<linearGradient id="warm" x1="0" y1="0" x2="0" y2="1">
 <stop offset="0" stop-color="#ffcf7a"/><stop offset="0.5" stop-color="#e8892f"/>
 <stop offset="1" stop-color="#a2470f"/></linearGradient>
<linearGradient id="gloss" x1="0" y1="0" x2="0" y2="1">
 <stop offset="0" stop-color="#ffffff" stop-opacity="0.75"/>
 <stop offset="1" stop-color="#ffffff" stop-opacity="0"/></linearGradient>
<linearGradient id="leaf" x1="0" y1="0" x2="0" y2="1">
 <stop offset="0" stop-color="#7ec850"/><stop offset="1" stop-color="#3f8f2e"/></linearGradient>
<linearGradient id="metal" x1="0" y1="0" x2="0" y2="1">
 <stop offset="0" stop-color="#ffffff"/><stop offset="0.45" stop-color="#cfd9e4"/>
 <stop offset="0.55" stop-color="#aebccd"/><stop offset="1" stop-color="#e8eef4"/></linearGradient>
<linearGradient id="metalV" x1="0" y1="0" x2="1" y2="0">
 <stop offset="0" stop-color="#8ea0b3"/><stop offset="0.5" stop-color="#f2f6fa"/>
 <stop offset="1" stop-color="#8ea0b3"/></linearGradient>
<linearGradient id="glass" x1="0" y1="0" x2="1" y2="0">
 <stop offset="0" stop-color="#ffffff" stop-opacity="0.55"/>
 <stop offset="0.35" stop-color="#ffffff" stop-opacity="0.05"/>
 <stop offset="0.75" stop-color="#bfe0ff" stop-opacity="0.12"/>
 <stop offset="1" stop-color="#ffffff" stop-opacity="0.4"/></linearGradient>
<radialGradient id="amber" cx="0.4" cy="0.35" r="0.75">
 <stop offset="0" stop-color="#ffcf5e"/><stop offset="0.55" stop-color="#e78b1f"/>
 <stop offset="1" stop-color="#9c4a0d"/></radialGradient>
<radialGradient id="gold" cx="0.4" cy="0.35" r="0.8">
 <stop offset="0" stop-color="#fff3b0"/><stop offset="0.5" stop-color="#f2c231"/>
 <stop offset="1" stop-color="#b5820f"/></radialGradient>
<filter id="ds" x="-30%" y="-30%" width="160%" height="160%">
 <feDropShadow dx="0" dy="7" stdDeviation="9" flood-color="#00133a" flood-opacity="0.4"/></filter>
</defs><rect x="40" y="40" width="432" height="432" rx="104" fill="url(#blue)" filter="url(#ds)"/><rect x="40" y="40" width="432" height="432" rx="104" fill="none" stroke="#ffffff" stroke-opacity="0.25" stroke-width="4"/><path d="M64 144 Q64 64 144 64 L368 64 Q448 64 448 144 L448 232 Q256 296 64 232 Z" fill="url(#gloss)"/><path d="M150 400 L150 250 A106 106 0 0 1 362 250 L362 400 Z" fill="#0a2f6e" opacity="0.3"/><g opacity="1.0">
<clipPath id="cc25619656"><path d="M200,196 a56,56 0 0 1 112,0 L312,330 a56,56 0 0 1 -112,0 Z"/></clipPath>
<path d="M200,196 a56,56 0 0 1 112,0 L312,330 a56,56 0 0 1 -112,0 Z" fill="#f6c945"/>
<g clip-path="url(#cc25619656)">
<rect x="190.7" y="156.8" width="17.5" height="14.4" rx="6.4" fill="#ffd23f" stroke="#dd9f16" stroke-width="1"/>
<rect x="209.3" y="156.8" width="17.5" height="14.4" rx="6.4" fill="#f6b230" stroke="#dd9f16" stroke-width="1"/>
<rect x="228.0" y="156.8" width="17.5" height="14.4" rx="6.4" fill="#f6b230" stroke="#dd9f16" stroke-width="1"/>
<rect x="246.7" y="156.8" width="17.5" height="14.4" rx="6.4" fill="#ffe071" stroke="#dd9f16" stroke-width="1"/>
<rect x="265.3" y="156.8" width="17.5" height="14.4" rx="6.4" fill="#ffd23f" stroke="#dd9f16" stroke-width="1"/>
<rect x="284.0" y="156.8" width="17.5" height="14.4" rx="6.4" fill="#f6b230" stroke="#dd9f16" stroke-width="1"/>
<rect x="302.7" y="156.8" width="17.5" height="14.4" rx="6.4" fill="#f6b230" stroke="#dd9f16" stroke-width="1"/>
<rect x="321.3" y="156.8" width="17.5" height="14.4" rx="6.4" fill="#ffe071" stroke="#dd9f16" stroke-width="1"/>
<rect x="200.0" y="170.6" width="17.5" height="14.4" rx="6.4" fill="#ffe071" stroke="#dd9f16" stroke-width="1"/>
<rect x="218.7" y="170.6" width="17.5" height="14.4" rx="6.4" fill="#ffe071" stroke="#dd9f16" stroke-width="1"/>
<rect x="237.3" y="170.6" width="17.5" height="14.4" rx="6.4" fill="#ffd23f" stroke="#dd9f16" stroke-width="1"/>
<rect x="256.0" y="170.6" width="17.5" height="14.4" rx="6.4" fill="#ffd23f" stroke="#dd9f16" stroke-width="1"/>
<rect x="274.7" y="170.6" width="17.5" height="14.4" rx="6.4" fill="#f6b230" stroke="#dd9f16" stroke-width="1"/>
<rect x="293.3" y="170.6" width="17.5" height="14.4" rx="6.4" fill="#ffe071" stroke="#dd9f16" stroke-width="1"/>
<rect x="312.0" y="170.6" width="17.5" height="14.4" rx="6.4" fill="#ffd23f" stroke="#dd9f16" stroke-width="1"/>
<rect x="190.7" y="184.4" width="17.5" height="14.4" rx="6.4" fill="#ffe071" stroke="#dd9f16" stroke-width="1"/>
<rect x="209.3" y="184.4" width="17.5" height="14.4" rx="6.4" fill="#ffd23f" stroke="#dd9f16" stroke-width="1"/>
<rect x="228.0" y="184.4" width="17.5" height="14.4" rx="6.4" fill="#ffd23f" stroke="#dd9f16" stroke-width="1"/>
<rect x="246.7" y="184.4" width="17.5" height="14.4" rx="6.4" fill="#f6b230" stroke="#dd9f16" stroke-width="1"/>
<rect x="265.3" y="184.4" width="17.5" height="14.4" rx="6.4" fill="#ffe071" stroke="#dd9f16" stroke-width="1"/>
<rect x="284.0" y="184.4" width="17.5" height="14.4" rx="6.4" fill="#ffd23f" stroke="#dd9f16" stroke-width="1"/>
<rect x="302.7" y="184.4" width="17.5" height="14.4" rx="6.4" fill="#ffd23f" stroke="#dd9f16" stroke-width="1"/>
<rect x="321.3" y="184.4" width="17.5" height="14.4" rx="6.4" fill="#f6b230" stroke="#dd9f16" stroke-width="1"/>
<rect x="200.0" y="198.1" width="17.5" height="14.4" rx="6.4" fill="#f6b230" stroke="#dd9f16" stroke-width="1"/>
<rect x="218.7" y="198.1" width="17.5" height="14.4" rx="6.4" fill="#f6b230" stroke="#dd9f16" stroke-width="1"/>
<rect x="237.3" y="198.1" width="17.5" height="14.4" rx="6.4" fill="#ffe071" stroke="#dd9f16" stroke-width="1"/>
<rect x="256.0" y="198.1" width="17.5" height="14.4" rx="6.4" fill="#ffe071" stroke="#dd9f16" stroke-width="1"/>
<rect x="274.7" y="198.1" width="17.5" height="14.4" rx="6.4" fill="#ffd23f" stroke="#dd9f16" stroke-width="1"/>
<rect x="293.3" y="198.1" width="17.5" height="14.4" rx="6.4" fill="#f6b230" stroke="#dd9f16" stroke-width="1"/>
<rect x="312.0" y="198.1" width="17.5" height="14.4" rx="6.4" fill="#ffe071" stroke="#dd9f16" stroke-width="1"/>
<rect x="190.7" y="211.9" width="17.5" height="14.4" rx="6.4" fill="#f6b230" stroke="#dd9f16" stroke-width="1"/>
<rect x="209.3" y="211.9" width="17.5" height="14.4" rx="6.4" fill="#ffe071" stroke="#dd9f16" stroke-width="1"/>
<rect x="228.0" y="211.9" width="17.5" height="14.4" rx="6.4" fill="#ffe071" stroke="#dd9f16" stroke-width="1"/>
<rect x="246.7" y="211.9" width="17.5" height="14.4" rx="6.4" fill="#ffd23f" stroke="#dd9f16" stroke-width="1"/>
<rect x="265.3" y="211.9" width="17.5" height="14.4" rx="6.4" fill="#f6b230" stroke="#dd9f16" stroke-width="1"/>
<rect x="284.0" y="211.9" width="17.5" height="14.4" rx="6.4" fill="#ffe071" stroke="#dd9f16" stroke-width="1"/>
<rect x="302.7" y="211.9" width="17.5" height="14.4" rx="6.4" fill="#ffe071" stroke="#dd9f16" stroke-width="1"/>
<rect x="321.3" y="211.9" width="17.5" height="14.4" rx="6.4" fill="#ffd23f" stroke="#dd9f16" stroke-width="1"/>
<rect x="200.0" y="225.7" width="17.5" height="14.4" rx="6.4" fill="#ffd23f" stroke="#dd9f16" stroke-width="1"/>
<rect x="218.7" y="225.7" width="17.5" height="14.4" rx="6.4" fill="#ffd23f" stroke="#dd9f16" stroke-width="1"/>
<rect x="237.3" y="225.7" width="17.5" height="14.4" rx="6.4" fill="#f6b230" stroke="#dd9f16" stroke-width="1"/>
<rect x="256.0" y="225.7" width="17.5" height="14.4" rx="6.4" fill="#f6b230" stroke="#dd9f16" stroke-width="1"/>
<rect x="274.7" y="225.7" width="17.5" height="14.4" rx="6.4" fill="#ffe071" stroke="#dd9f16" stroke-width="1"/>
<rect x="293.3" y="225.7" width="17.5" height="14.4" rx="6.4" fill="#ffd23f" stroke="#dd9f16" stroke-width="1"/>
<rect x="312.0" y="225.7" width="17.5" height="14.4" rx="6.4" fill="#f6b230" stroke="#dd9f16" stroke-width="1"/>
<rect x="190.7" y="239.5" width="17.5" height="14.4" rx="6.4" fill="#ffd23f" stroke="#dd9f16" stroke-width="1"/>
<rect x="209.3" y="239.5" width="17.5" height="14.4" rx="6.4" fill="#f6b230" stroke="#dd9f16" stroke-width="1"/>
<rect x="228.0" y="239.5" width="17.5" height="14.4" rx="6.4" fill="#f6b230" stroke="#dd9f16" stroke-width="1"/>
<rect x="246.7" y="239.5" width="17.5" height="14.4" rx="6.4" fill="#ffe071" stroke="#dd9f16" stroke-width="1"/>
<rect x="265.3" y="239.5" width="17.5" height="14.4" rx="6.4" fill="#ffd23f" stroke="#dd9f16" stroke-width="1"/>
<rect x="284.0" y="239.5" width="17.5" height="14.4" rx="6.4" fill="#f6b230" stroke="#dd9f16" stroke-width="1"/>
<rect x="302.7" y="239.5" width="17.5" height="14.4" rx="6.4" fill="#f6b230" stroke="#dd9f16" stroke-width="1"/>
<rect x="321.3" y="239.5" width="17.5" height="14.4" rx="6.4" fill="#ffe071" stroke="#dd9f16" stroke-width="1"/>
<rect x="200.0" y="253.2" width="17.5" height="14.4" rx="6.4" fill="#ffe071" stroke="#dd9f16" stroke-width="1"/>
<rect x="218.7" y="253.2" width="17.5" height="14.4" rx="6.4" fill="#ffe071" stroke="#dd9f16" stroke-width="1"/>
<rect x="237.3" y="253.2" width="17.5" height="14.4" rx="6.4" fill="#ffd23f" stroke="#dd9f16" stroke-width="1"/>
<rect x="256.0" y="253.2" width="17.5" height="14.4" rx="6.4" fill="#ffd23f" stroke="#dd9f16" stroke-width="1"/>
<rect x="274.7" y="253.2" width="17.5" height="14.4" rx="6.4" fill="#f6b230" stroke="#dd9f16" stroke-width="1"/>
<rect x="293.3" y="253.2" width="17.5" height="14.4" rx="6.4" fill="#ffe071" stroke="#dd9f16" stroke-width="1"/>
<rect x="312.0" y="253.2" width="17.5" height="14.4" rx="6.4" fill="#ffd23f" stroke="#dd9f16" stroke-width="1"/>
<rect x="190.7" y="267.0" width="17.5" height="14.4" rx="6.4" fill="#ffe071" stroke="#dd9f16" stroke-width="1"/>
<rect x="209.3" y="267.0" width="17.5" height="14.4" rx="6.4" fill="#ffd23f" stroke="#dd9f16" stroke-width="1"/>
<rect x="228.0" y="267.0" width="17.5" height="14.4" rx="6.4" fill="#ffd23f" stroke="#dd9f16" stroke-width="1"/>
<rect x="246.7" y="267.0" width="17.5" height="14.4" rx="6.4" fill="#f6b230" stroke="#dd9f16" stroke-width="1"/>
<rect x="265.3" y="267.0" width="17.5" height="14.4" rx="6.4" fill="#ffe071" stroke="#dd9f16" stroke-width="1"/>
<rect x="284.0" y="267.0" width="17.5" height="14.4" rx="6.4" fill="#ffd23f" stroke="#dd9f16" stroke-width="1"/>
<rect x="302.7" y="267.0" width="17.5" height="14.4" rx="6.4" fill="#ffd23f" stroke="#dd9f16" stroke-width="1"/>
<rect x="321.3" y="267.0" width="17.5" height="14.4" rx="6.4" fill="#f6b230" stroke="#dd9f16" stroke-width="1"/>
<rect x="200.0" y="280.8" width="17.5" height="14.4" rx="6.4" fill="#f6b230" stroke="#dd9f16" stroke-width="1"/>
<rect x="218.7" y="280.8" width="17.5" height="14.4" rx="6.4" fill="#f6b230" stroke="#dd9f16" stroke-width="1"/>
<rect x="237.3" y="280.8" width="17.5" height="14.4" rx="6.4" fill="#ffe071" stroke="#dd9f16" stroke-width="1"/>
<rect x="256.0" y="280.8" width="17.5" height="14.4" rx="6.4" fill="#ffe071" stroke="#dd9f16" stroke-width="1"/>
<rect x="274.7" y="280.8" width="17.5" height="14.4" rx="6.4" fill="#ffd23f" stroke="#dd9f16" stroke-width="1"/>
<rect x="293.3" y="280.8" width="17.5" height="14.4" rx="6.4" fill="#f6b230" stroke="#dd9f16" stroke-width="1"/>
<rect x="312.0" y="280.8" width="17.5" height="14.4" rx="6.4" fill="#ffe071" stroke="#dd9f16" stroke-width="1"/>
<rect x="190.7" y="294.6" width="17.5" height="14.4" rx="6.4" fill="#f6b230" stroke="#dd9f16" stroke-width="1"/>
<rect x="209.3" y="294.6" width="17.5" height="14.4" rx="6.4" fill="#ffe071" stroke="#dd9f16" stroke-width="1"/>
<rect x="228.0" y="294.6" width="17.5" height="14.4" rx="6.4" fill="#ffe071" stroke="#dd9f16" stroke-width="1"/>
<rect x="246.7" y="294.6" width="17.5" height="14.4" rx="6.4" fill="#ffd23f" stroke="#dd9f16" stroke-width="1"/>
<rect x="265.3" y="294.6" width="17.5" height="14.4" rx="6.4" fill="#f6b230" stroke="#dd9f16" stroke-width="1"/>
<rect x="284.0" y="294.6" width="17.5" height="14.4" rx="6.4" fill="#ffe071" stroke="#dd9f16" stroke-width="1"/>
<rect x="302.7" y="294.6" width="17.5" height="14.4" rx="6.4" fill="#ffe071" stroke="#dd9f16" stroke-width="1"/>
<rect x="321.3" y="294.6" width="17.5" height="14.4" rx="6.4" fill="#ffd23f" stroke="#dd9f16" stroke-width="1"/>
<rect x="200.0" y="308.3" width="17.5" height="14.4" rx="6.4" fill="#ffd23f" stroke="#dd9f16" stroke-width="1"/>
<rect x="218.7" y="308.3" width="17.5" height="14.4" rx="6.4" fill="#ffd23f" stroke="#dd9f16" stroke-width="1"/>
<rect x="237.3" y="308.3" width="17.5" height="14.4" rx="6.4" fill="#f6b230" stroke="#dd9f16" stroke-width="1"/>
<rect x="256.0" y="308.3" width="17.5" height="14.4" rx="6.4" fill="#f6b230" stroke="#dd9f16" stroke-width="1"/>
<rect x="274.7" y="308.3" width="17.5" height="14.4" rx="6.4" fill="#ffe071" stroke="#dd9f16" stroke-width="1"/>
<rect x="293.3" y="308.3" width="17.5" height="14.4" rx="6.4" fill="#ffd23f" stroke="#dd9f16" stroke-width="1"/>
<rect x="312.0" y="308.3" width="17.5" height="14.4" rx="6.4" fill="#f6b230" stroke="#dd9f16" stroke-width="1"/>
<rect x="190.7" y="322.1" width="17.5" height="14.4" rx="6.4" fill="#ffd23f" stroke="#dd9f16" stroke-width="1"/>
<rect x="209.3" y="322.1" width="17.5" height="14.4" rx="6.4" fill="#f6b230" stroke="#dd9f16" stroke-width="1"/>
<rect x="228.0" y="322.1" width="17.5" height="14.4" rx="6.4" fill="#f6b230" stroke="#dd9f16" stroke-width="1"/>
<rect x="246.7" y="322.1" width="17.5" height="14.4" rx="6.4" fill="#ffe071" stroke="#dd9f16" stroke-width="1"/>
<rect x="265.3" y="322.1" width="17.5" height="14.4" rx="6.4" fill="#ffd23f" stroke="#dd9f16" stroke-width="1"/>
<rect x="284.0" y="322.1" width="17.5" height="14.4" rx="6.4" fill="#f6b230" stroke="#dd9f16" stroke-width="1"/>
<rect x="302.7" y="322.1" width="17.5" height="14.4" rx="6.4" fill="#f6b230" stroke="#dd9f16" stroke-width="1"/>
<rect x="321.3" y="322.1" width="17.5" height="14.4" rx="6.4" fill="#ffe071" stroke="#dd9f16" stroke-width="1"/>
<rect x="200.0" y="335.9" width="17.5" height="14.4" rx="6.4" fill="#ffe071" stroke="#dd9f16" stroke-width="1"/>
<rect x="218.7" y="335.9" width="17.5" height="14.4" rx="6.4" fill="#ffe071" stroke="#dd9f16" stroke-width="1"/>
<rect x="237.3" y="335.9" width="17.5" height="14.4" rx="6.4" fill="#ffd23f" stroke="#dd9f16" stroke-width="1"/>
<rect x="256.0" y="335.9" width="17.5" height="14.4" rx="6.4" fill="#ffd23f" stroke="#dd9f16" stroke-width="1"/>
<rect x="274.7" y="335.9" width="17.5" height="14.4" rx="6.4" fill="#f6b230" stroke="#dd9f16" stroke-width="1"/>
<rect x="293.3" y="335.9" width="17.5" height="14.4" rx="6.4" fill="#ffe071" stroke="#dd9f16" stroke-width="1"/>
<rect x="312.0" y="335.9" width="17.5" height="14.4" rx="6.4" fill="#ffd23f" stroke="#dd9f16" stroke-width="1"/>
<rect x="190.7" y="349.7" width="17.5" height="14.4" rx="6.4" fill="#ffe071" stroke="#dd9f16" stroke-width="1"/>
<rect x="209.3" y="349.7" width="17.5" height="14.4" rx="6.4" fill="#ffd23f" stroke="#dd9f16" stroke-width="1"/>
<rect x="228.0" y="349.7" width="17.5" height="14.4" rx="6.4" fill="#ffd23f" stroke="#dd9f16" stroke-width="1"/>
<rect x="246.7" y="349.7" width="17.5" height="14.4" rx="6.4" fill="#f6b230" stroke="#dd9f16" stroke-width="1"/>
<rect x="265.3" y="349.7" width="17.5" height="14.4" rx="6.4" fill="#ffe071" stroke="#dd9f16" stroke-width="1"/>
<rect x="284.0" y="349.7" width="17.5" height="14.4" rx="6.4" fill="#ffd23f" stroke="#dd9f16" stroke-width="1"/>
<rect x="302.7" y="349.7" width="17.5" height="14.4" rx="6.4" fill="#ffd23f" stroke="#dd9f16" stroke-width="1"/>
<rect x="321.3" y="349.7" width="17.5" height="14.4" rx="6.4" fill="#f6b230" stroke="#dd9f16" stroke-width="1"/>
<rect x="200.0" y="363.4" width="17.5" height="14.4" rx="6.4" fill="#f6b230" stroke="#dd9f16" stroke-width="1"/>
<rect x="218.7" y="363.4" width="17.5" height="14.4" rx="6.4" fill="#f6b230" stroke="#dd9f16" stroke-width="1"/>
<rect x="237.3" y="363.4" width="17.5" height="14.4" rx="6.4" fill="#ffe071" stroke="#dd9f16" stroke-width="1"/>
<rect x="256.0" y="363.4" width="17.5" height="14.4" rx="6.4" fill="#ffe071" stroke="#dd9f16" stroke-width="1"/>
<rect x="274.7" y="363.4" width="17.5" height="14.4" rx="6.4" fill="#ffd23f" stroke="#dd9f16" stroke-width="1"/>
<rect x="293.3" y="363.4" width="17.5" height="14.4" rx="6.4" fill="#f6b230" stroke="#dd9f16" stroke-width="1"/>
<rect x="312.0" y="363.4" width="17.5" height="14.4" rx="6.4" fill="#ffe071" stroke="#dd9f16" stroke-width="1"/>
<rect x="190.7" y="377.2" width="17.5" height="14.4" rx="6.4" fill="#f6b230" stroke="#dd9f16" stroke-width="1"/>
<rect x="209.3" y="377.2" width="17.5" height="14.4" rx="6.4" fill="#ffe071" stroke="#dd9f16" stroke-width="1"/>
<rect x="228.0" y="377.2" width="17.5" height="14.4" rx="6.4" fill="#ffe071" stroke="#dd9f16" stroke-width="1"/>
<rect x="246.7" y="377.2" width="17.5" height="14.4" rx="6.4" fill="#ffd23f" stroke="#dd9f16" stroke-width="1"/>
<rect x="265.3" y="377.2" width="17.5" height="14.4" rx="6.4" fill="#f6b230" stroke="#dd9f16" stroke-width="1"/>
<rect x="284.0" y="377.2" width="17.5" height="14.4" rx="6.4" fill="#ffe071" stroke="#dd9f16" stroke-width="1"/>
<rect x="302.7" y="377.2" width="17.5" height="14.4" rx="6.4" fill="#ffe071" stroke="#dd9f16" stroke-width="1"/>
<rect x="321.3" y="377.2" width="17.5" height="14.4" rx="6.4" fill="#ffd23f" stroke="#dd9f16" stroke-width="1"/>
<rect x="200.0" y="391.0" width="17.5" height="14.4" rx="6.4" fill="#ffd23f" stroke="#dd9f16" stroke-width="1"/>
<rect x="218.7" y="391.0" width="17.5" height="14.4" rx="6.4" fill="#ffd23f" stroke="#dd9f16" stroke-width="1"/>
<rect x="237.3" y="391.0" width="17.5" height="14.4" rx="6.4" fill="#f6b230" stroke="#dd9f16" stroke-width="1"/>
<rect x="256.0" y="391.0" width="17.5" height="14.4" rx="6.4" fill="#f6b230" stroke="#dd9f16" stroke-width="1"/>
<rect x="274.7" y="391.0" width="17.5" height="14.4" rx="6.4" fill="#ffe071" stroke="#dd9f16" stroke-width="1"/>
<rect x="293.3" y="391.0" width="17.5" height="14.4" rx="6.4" fill="#ffd23f" stroke="#dd9f16" stroke-width="1"/>
<rect x="312.0" y="391.0" width="17.5" height="14.4" rx="6.4" fill="#f6b230" stroke="#dd9f16" stroke-width="1"/>
</g>
<ellipse cx="238.07999999999998" cy="237.8" rx="17.92" ry="79.8" fill="#ffffff" opacity="0.16"/>
<path d="M200,196 a56,56 0 0 1 112,0 L312,330 a56,56 0 0 1 -112,0 Z" fill="none" stroke="#c98a12" stroke-width="2.5"/>
<path d="M256,140 l0,-34 M250,145.6 q-12,-24 3,-40 M262,145.6 q12,-24 -2,-42" stroke="#e7cf7a" stroke-width="3.5" fill="none" stroke-linecap="round"/>
</g><path d="M150 400 L150 250 A106 106 0 0 1 362 250 L362 400 Z" fill="url(#glass)" stroke="#eaf4ff" stroke-opacity="0.55" stroke-width="3"/><path d="M180 392 L180 258 A76 76 0 0 1 210 205" stroke="#ffffff" stroke-opacity="0.5" stroke-width="16" fill="none" stroke-linecap="round"/><circle cx="256" cy="150" r="14" fill="url(#metal)" stroke="#7f93a8" stroke-width="3"/><rect x="150" y="392" width="212" height="34" rx="14" fill="url(#metalV)" stroke="#7f93a8" stroke-width="3"/></svg>