<svg xmlns="http://www.w3.org/2000/svg" width="512" height="512" viewBox="0 0 512 512"><defs>
<linearGradient id="teal" x1="0" y1="0" x2="0" y2="1">
 <stop offset="0" stop-color="#37c6c0"/><stop offset="0.5" stop-color="#1b8f9a"/>
 <stop offset="1" stop-color="#0c5560"/></linearGradient>
<linearGradient id="gloss" x1="0" y1="0" x2="0" y2="1">
 <stop offset="0" stop-color="#ffffff" stop-opacity="0.75"/>
 <stop offset="1" stop-color="#ffffff" stop-opacity="0"/></linearGradient>
<linearGradient id="metalV" x1="0" y1="0" x2="1" y2="0">
 <stop offset="0" stop-color="#8ea0b3"/><stop offset="0.5" stop-color="#f2f6fa"/>
 <stop offset="1" stop-color="#8ea0b3"/></linearGradient>
<linearGradient id="glass" x1="0" y1="0" x2="1" y2="0">
 <stop offset="0" stop-color="#ffffff" stop-opacity="0.55"/>
 <stop offset="0.35" stop-color="#ffffff" stop-opacity="0.05"/>
 <stop offset="0.75" stop-color="#bfe0ff" stop-opacity="0.12"/>
 <stop offset="1" stop-color="#ffffff" stop-opacity="0.4"/></linearGradient>
<linearGradient id="leaf" x1="0" y1="0" x2="0" y2="1">
 <stop offset="0" stop-color="#7ec850"/><stop offset="1" stop-color="#2f7a22"/></linearGradient>
<!-- зерно: выпуклость (свет сверху-слева -> тёмный низ-право) -->
<radialGradient id="kern" cx="0.34" cy="0.28" r="0.85">
 <stop offset="0" stop-color="#fff4b0"/>
 <stop offset="0.35" stop-color="#ffd23f"/>
 <stop offset="0.75" stop-color="#e5a41c"/>
 <stop offset="1" stop-color="#a86e0c"/></radialGradient>
<!-- цилиндрическая светотень по горизонтали -->
<linearGradient id="cyl" x1="0" y1="0" x2="1" y2="0">
 <stop offset="0" stop-color="#3a2400" stop-opacity="0.55"/>
 <stop offset="0.13" stop-color="#3a2400" stop-opacity="0"/>
 <stop offset="0.30" stop-color="#ffffff" stop-opacity="0.30"/>
 <stop offset="0.5" stop-color="#ffffff" stop-opacity="0"/>
 <stop offset="0.78" stop-color="#3a2400" stop-opacity="0.30"/>
 <stop offset="1" stop-color="#3a2400" stop-opacity="0.62"/></linearGradient>
<!-- вертикаль: блик у макушки, тень у кончика -->
<linearGradient id="cylV" x1="0" y1="0" x2="0" y2="1">
 <stop offset="0" stop-color="#ffffff" stop-opacity="0.28"/>
 <stop offset="0.16" stop-color="#ffffff" stop-opacity="0"/>
 <stop offset="0.82" stop-color="#3a2400" stop-opacity="0"/>
 <stop offset="1" stop-color="#3a2400" stop-opacity="0.45"/></linearGradient>
<filter id="ds" x="-30%" y="-30%" width="160%" height="160%">
 <feDropShadow dx="0" dy="7" stdDeviation="9" flood-color="#00133a" flood-opacity="0.4"/></filter>
<filter id="softsh" x="-40%" y="-40%" width="180%" height="180%">
 <feDropShadow dx="0" dy="4" stdDeviation="4" flood-color="#5a3a00" flood-opacity="0.4"/></filter>
</defs><rect x="40" y="40" width="432" height="432" rx="104" fill="url(#teal)" filter="url(#ds)"/><rect x="40" y="40" width="432" height="432" rx="104" fill="none" stroke="#ffffff" stroke-opacity="0.25" stroke-width="4"/><path d="M64 144 Q64 64 144 64 L368 64 Q448 64 448 144 L448 232 Q256 296 64 232 Z" fill="url(#gloss)"/><rect x="164" y="132" width="184" height="292" rx="46" fill="#0a2f6e" opacity="0.35"/><g filter="url(#softsh)">
<clipPath id="bodyj"><path d="M198,168 a58,58 0 0 1 116,0 C314,319.2 282.1,378 256,378 C229.9,378 198,319.2 198,168 Z"/></clipPath>
<path d="M198,168 a58,58 0 0 1 116,0 C314,319.2 282.1,378 256,378 C229.9,378 198,319.2 198,168 Z" fill="#e8a91c"/>
<g clip-path="url(#bodyj)">
<rect x="199.5" y="105.3" width="8.4" height="19.6" rx="3.5" fill="url(#kern)" stroke="#9c6a0a" stroke-width="0.8" stroke-opacity="0.6"/>
<rect x="204.4" y="108.4" width="14.9" height="19.6" rx="6.2" fill="url(#kern)" stroke="#9c6a0a" stroke-width="0.8" stroke-opacity="0.6"/>
<rect x="214.1" y="110.9" width="20.0" height="19.6" rx="8.2" fill="url(#kern)" stroke="#9c6a0a" stroke-width="0.8" stroke-opacity="0.6"/>
<rect x="227.7" y="112.4" width="23.2" height="19.6" rx="8.2" fill="url(#kern)" stroke="#9c6a0a" stroke-width="0.8" stroke-opacity="0.6"/>
<rect x="243.8" y="113.0" width="24.4" height="19.6" rx="8.2" fill="url(#kern)" stroke="#9c6a0a" stroke-width="0.8" stroke-opacity="0.6"/>
<rect x="261.1" y="112.4" width="23.2" height="19.6" rx="8.2" fill="url(#kern)" stroke="#9c6a0a" stroke-width="0.8" stroke-opacity="0.6"/>
<rect x="277.9" y="110.9" width="20.0" height="19.6" rx="8.2" fill="url(#kern)" stroke="#9c6a0a" stroke-width="0.8" stroke-opacity="0.6"/>
<rect x="292.7" y="108.4" width="14.9" height="19.6" rx="6.2" fill="url(#kern)" stroke="#9c6a0a" stroke-width="0.8" stroke-opacity="0.6"/>
<rect x="304.1" y="105.3" width="8.4" height="19.6" rx="3.5" fill="url(#kern)" stroke="#9c6a0a" stroke-width="0.8" stroke-opacity="0.6"/>
<rect x="201.3" y="125.1" width="11.7" height="19.6" rx="4.9" fill="url(#kern)" stroke="#9c6a0a" stroke-width="0.8" stroke-opacity="0.6"/>
<rect x="208.7" y="128.0" width="17.6" height="19.6" rx="7.4" fill="url(#kern)" stroke="#9c6a0a" stroke-width="0.8" stroke-opacity="0.6"/>
<rect x="220.5" y="130.0" width="21.9" height="19.6" rx="8.2" fill="url(#kern)" stroke="#9c6a0a" stroke-width="0.8" stroke-opacity="0.6"/>
<rect x="235.5" y="131.1" width="24.1" height="19.6" rx="8.2" fill="url(#kern)" stroke="#9c6a0a" stroke-width="0.8" stroke-opacity="0.6"/>
<rect x="252.4" y="131.1" width="24.1" height="19.6" rx="8.2" fill="url(#kern)" stroke="#9c6a0a" stroke-width="0.8" stroke-opacity="0.6"/>
<rect x="269.7" y="130.0" width="21.9" height="19.6" rx="8.2" fill="url(#kern)" stroke="#9c6a0a" stroke-width="0.8" stroke-opacity="0.6"/>
<rect x="285.7" y="128.0" width="17.6" height="19.6" rx="7.4" fill="url(#kern)" stroke="#9c6a0a" stroke-width="0.8" stroke-opacity="0.6"/>
<rect x="298.9" y="125.1" width="11.7" height="19.6" rx="4.9" fill="url(#kern)" stroke="#9c6a0a" stroke-width="0.8" stroke-opacity="0.6"/>
<rect x="199.5" y="141.7" width="8.4" height="19.6" rx="3.5" fill="url(#kern)" stroke="#9c6a0a" stroke-width="0.8" stroke-opacity="0.6"/>
<rect x="204.4" y="144.9" width="14.9" height="19.6" rx="6.2" fill="url(#kern)" stroke="#9c6a0a" stroke-width="0.8" stroke-opacity="0.6"/>
<rect x="214.1" y="147.3" width="20.0" height="19.6" rx="8.2" fill="url(#kern)" stroke="#9c6a0a" stroke-width="0.8" stroke-opacity="0.6"/>
<rect x="227.7" y="148.9" width="23.2" height="19.6" rx="8.2" fill="url(#kern)" stroke="#9c6a0a" stroke-width="0.8" stroke-opacity="0.6"/>
<rect x="243.8" y="149.4" width="24.4" height="19.6" rx="8.2" fill="url(#kern)" stroke="#9c6a0a" stroke-width="0.8" stroke-opacity="0.6"/>
<rect x="261.1" y="148.9" width="23.2" height="19.6" rx="8.2" fill="url(#kern)" stroke="#9c6a0a" stroke-width="0.8" stroke-opacity="0.6"/>
<rect x="277.9" y="147.3" width="20.0" height="19.6" rx="8.2" fill="url(#kern)" stroke="#9c6a0a" stroke-width="0.8" stroke-opacity="0.6"/>
<rect x="292.7" y="144.9" width="14.9" height="19.6" rx="6.2" fill="url(#kern)" stroke="#9c6a0a" stroke-width="0.8" stroke-opacity="0.6"/>
<rect x="304.1" y="141.7" width="8.4" height="19.6" rx="3.5" fill="url(#kern)" stroke="#9c6a0a" stroke-width="0.8" stroke-opacity="0.6"/>
<rect x="201.3" y="161.6" width="11.7" height="19.6" rx="4.9" fill="url(#kern)" stroke="#9c6a0a" stroke-width="0.8" stroke-opacity="0.6"/>
<rect x="208.7" y="164.4" width="17.6" height="19.6" rx="7.4" fill="url(#kern)" stroke="#9c6a0a" stroke-width="0.8" stroke-opacity="0.6"/>
<rect x="220.5" y="166.5" width="21.9" height="19.6" rx="8.2" fill="url(#kern)" stroke="#9c6a0a" stroke-width="0.8" stroke-opacity="0.6"/>
<rect x="235.5" y="167.5" width="24.1" height="19.6" rx="8.2" fill="url(#kern)" stroke="#9c6a0a" stroke-width="0.8" stroke-opacity="0.6"/>
<rect x="252.4" y="167.5" width="24.1" height="19.6" rx="8.2" fill="url(#kern)" stroke="#9c6a0a" stroke-width="0.8" stroke-opacity="0.6"/>
<rect x="269.7" y="166.5" width="21.9" height="19.6" rx="8.2" fill="url(#kern)" stroke="#9c6a0a" stroke-width="0.8" stroke-opacity="0.6"/>
<rect x="285.7" y="164.4" width="17.6" height="19.6" rx="7.4" fill="url(#kern)" stroke="#9c6a0a" stroke-width="0.8" stroke-opacity="0.6"/>
<rect x="298.9" y="161.6" width="11.7" height="19.6" rx="4.9" fill="url(#kern)" stroke="#9c6a0a" stroke-width="0.8" stroke-opacity="0.6"/>
<rect x="199.5" y="178.2" width="8.4" height="19.6" rx="3.5" fill="url(#kern)" stroke="#9c6a0a" stroke-width="0.8" stroke-opacity="0.6"/>
<rect x="204.4" y="181.3" width="14.9" height="19.6" rx="6.2" fill="url(#kern)" stroke="#9c6a0a" stroke-width="0.8" stroke-opacity="0.6"/>
<rect x="214.1" y="183.8" width="20.0" height="19.6" rx="8.2" fill="url(#kern)" stroke="#9c6a0a" stroke-width="0.8" stroke-opacity="0.6"/>
<rect x="227.7" y="185.4" width="23.2" height="19.6" rx="8.2" fill="url(#kern)" stroke="#9c6a0a" stroke-width="0.8" stroke-opacity="0.6"/>
<rect x="243.8" y="185.9" width="24.4" height="19.6" rx="8.2" fill="url(#kern)" stroke="#9c6a0a" stroke-width="0.8" stroke-opacity="0.6"/>
<rect x="261.1" y="185.4" width="23.2" height="19.6" rx="8.2" fill="url(#kern)" stroke="#9c6a0a" stroke-width="0.8" stroke-opacity="0.6"/>
<rect x="277.9" y="183.8" width="20.0" height="19.6" rx="8.2" fill="url(#kern)" stroke="#9c6a0a" stroke-width="0.8" stroke-opacity="0.6"/>
<rect x="292.7" y="181.3" width="14.9" height="19.6" rx="6.2" fill="url(#kern)" stroke="#9c6a0a" stroke-width="0.8" stroke-opacity="0.6"/>
<rect x="304.1" y="178.2" width="8.4" height="19.6" rx="3.5" fill="url(#kern)" stroke="#9c6a0a" stroke-width="0.8" stroke-opacity="0.6"/>
<rect x="201.3" y="198.1" width="11.7" height="19.6" rx="4.9" fill="url(#kern)" stroke="#9c6a0a" stroke-width="0.8" stroke-opacity="0.6"/>
<rect x="208.7" y="200.9" width="17.6" height="19.6" rx="7.4" fill="url(#kern)" stroke="#9c6a0a" stroke-width="0.8" stroke-opacity="0.6"/>
<rect x="220.5" y="202.9" width="21.9" height="19.6" rx="8.2" fill="url(#kern)" stroke="#9c6a0a" stroke-width="0.8" stroke-opacity="0.6"/>
<rect x="235.5" y="204.0" width="24.1" height="19.6" rx="8.2" fill="url(#kern)" stroke="#9c6a0a" stroke-width="0.8" stroke-opacity="0.6"/>
<rect x="252.4" y="204.0" width="24.1" height="19.6" rx="8.2" fill="url(#kern)" stroke="#9c6a0a" stroke-width="0.8" stroke-opacity="0.6"/>
<rect x="269.7" y="202.9" width="21.9" height="19.6" rx="8.2" fill="url(#kern)" stroke="#9c6a0a" stroke-width="0.8" stroke-opacity="0.6"/>
<rect x="285.7" y="200.9" width="17.6" height="19.6" rx="7.4" fill="url(#kern)" stroke="#9c6a0a" stroke-width="0.8" stroke-opacity="0.6"/>
<rect x="298.9" y="198.1" width="11.7" height="19.6" rx="4.9" fill="url(#kern)" stroke="#9c6a0a" stroke-width="0.8" stroke-opacity="0.6"/>
<rect x="199.5" y="214.7" width="8.4" height="19.6" rx="3.5" fill="url(#kern)" stroke="#9c6a0a" stroke-width="0.8" stroke-opacity="0.6"/>
<rect x="204.4" y="217.8" width="14.9" height="19.6" rx="6.2" fill="url(#kern)" stroke="#9c6a0a" stroke-width="0.8" stroke-opacity="0.6"/>
<rect x="214.1" y="220.2" width="20.0" height="19.6" rx="8.2" fill="url(#kern)" stroke="#9c6a0a" stroke-width="0.8" stroke-opacity="0.6"/>
<rect x="227.7" y="221.8" width="23.2" height="19.6" rx="8.2" fill="url(#kern)" stroke="#9c6a0a" stroke-width="0.8" stroke-opacity="0.6"/>
<rect x="243.8" y="222.4" width="24.4" height="19.6" rx="8.2" fill="url(#kern)" stroke="#9c6a0a" stroke-width="0.8" stroke-opacity="0.6"/>
<rect x="261.1" y="221.8" width="23.2" height="19.6" rx="8.2" fill="url(#kern)" stroke="#9c6a0a" stroke-width="0.8" stroke-opacity="0.6"/>
<rect x="277.9" y="220.2" width="20.0" height="19.6" rx="8.2" fill="url(#kern)" stroke="#9c6a0a" stroke-width="0.8" stroke-opacity="0.6"/>
<rect x="292.7" y="217.8" width="14.9" height="19.6" rx="6.2" fill="url(#kern)" stroke="#9c6a0a" stroke-width="0.8" stroke-opacity="0.6"/>
<rect x="304.1" y="214.7" width="8.4" height="19.6" rx="3.5" fill="url(#kern)" stroke="#9c6a0a" stroke-width="0.8" stroke-opacity="0.6"/>
<rect x="201.3" y="234.5" width="11.7" height="19.6" rx="4.9" fill="url(#kern)" stroke="#9c6a0a" stroke-width="0.8" stroke-opacity="0.6"/>
<rect x="208.7" y="237.3" width="17.6" height="19.6" rx="7.4" fill="url(#kern)" stroke="#9c6a0a" stroke-width="0.8" stroke-opacity="0.6"/>
<rect x="220.5" y="239.4" width="21.9" height="19.6" rx="8.2" fill="url(#kern)" stroke="#9c6a0a" stroke-width="0.8" stroke-opacity="0.6"/>
<rect x="235.5" y="240.5" width="24.1" height="19.6" rx="8.2" fill="url(#kern)" stroke="#9c6a0a" stroke-width="0.8" stroke-opacity="0.6"/>
<rect x="252.4" y="240.5" width="24.1" height="19.6" rx="8.2" fill="url(#kern)" stroke="#9c6a0a" stroke-width="0.8" stroke-opacity="0.6"/>
<rect x="269.7" y="239.4" width="21.9" height="19.6" rx="8.2" fill="url(#kern)" stroke="#9c6a0a" stroke-width="0.8" stroke-opacity="0.6"/>
<rect x="285.7" y="237.3" width="17.6" height="19.6" rx="7.4" fill="url(#kern)" stroke="#9c6a0a" stroke-width="0.8" stroke-opacity="0.6"/>
<rect x="298.9" y="234.5" width="11.7" height="19.6" rx="4.9" fill="url(#kern)" stroke="#9c6a0a" stroke-width="0.8" stroke-opacity="0.6"/>
<rect x="199.5" y="251.1" width="8.4" height="19.6" rx="3.5" fill="url(#kern)" stroke="#9c6a0a" stroke-width="0.8" stroke-opacity="0.6"/>
<rect x="204.4" y="254.2" width="14.9" height="19.6" rx="6.2" fill="url(#kern)" stroke="#9c6a0a" stroke-width="0.8" stroke-opacity="0.6"/>
<rect x="214.1" y="256.7" width="20.0" height="19.6" rx="8.2" fill="url(#kern)" stroke="#9c6a0a" stroke-width="0.8" stroke-opacity="0.6"/>
<rect x="227.7" y="258.3" width="23.2" height="19.6" rx="8.2" fill="url(#kern)" stroke="#9c6a0a" stroke-width="0.8" stroke-opacity="0.6"/>
<rect x="243.8" y="258.8" width="24.4" height="19.6" rx="8.2" fill="url(#kern)" stroke="#9c6a0a" stroke-width="0.8" stroke-opacity="0.6"/>
<rect x="261.1" y="258.3" width="23.2" height="19.6" rx="8.2" fill="url(#kern)" stroke="#9c6a0a" stroke-width="0.8" stroke-opacity="0.6"/>
<rect x="277.9" y="256.7" width="20.0" height="19.6" rx="8.2" fill="url(#kern)" stroke="#9c6a0a" stroke-width="0.8" stroke-opacity="0.6"/>
<rect x="292.7" y="254.2" width="14.9" height="19.6" rx="6.2" fill="url(#kern)" stroke="#9c6a0a" stroke-width="0.8" stroke-opacity="0.6"/>
<rect x="304.1" y="251.1" width="8.4" height="19.6" rx="3.5" fill="url(#kern)" stroke="#9c6a0a" stroke-width="0.8" stroke-opacity="0.6"/>
<rect x="201.3" y="271.0" width="11.7" height="19.6" rx="4.9" fill="url(#kern)" stroke="#9c6a0a" stroke-width="0.8" stroke-opacity="0.6"/>
<rect x="208.7" y="273.8" width="17.6" height="19.6" rx="7.4" fill="url(#kern)" stroke="#9c6a0a" stroke-width="0.8" stroke-opacity="0.6"/>
<rect x="220.5" y="275.9" width="21.9" height="19.6" rx="8.2" fill="url(#kern)" stroke="#9c6a0a" stroke-width="0.8" stroke-opacity="0.6"/>
<rect x="235.5" y="276.9" width="24.1" height="19.6" rx="8.2" fill="url(#kern)" stroke="#9c6a0a" stroke-width="0.8" stroke-opacity="0.6"/>
<rect x="252.4" y="276.9" width="24.1" height="19.6" rx="8.2" fill="url(#kern)" stroke="#9c6a0a" stroke-width="0.8" stroke-opacity="0.6"/>
<rect x="269.7" y="275.9" width="21.9" height="19.6" rx="8.2" fill="url(#kern)" stroke="#9c6a0a" stroke-width="0.8" stroke-opacity="0.6"/>
<rect x="285.7" y="273.8" width="17.6" height="19.6" rx="7.4" fill="url(#kern)" stroke="#9c6a0a" stroke-width="0.8" stroke-opacity="0.6"/>
<rect x="298.9" y="271.0" width="11.7" height="19.6" rx="4.9" fill="url(#kern)" stroke="#9c6a0a" stroke-width="0.8" stroke-opacity="0.6"/>
<rect x="202.1" y="287.8" width="8.0" height="19.3" rx="3.4" fill="url(#kern)" stroke="#9c6a0a" stroke-width="0.8" stroke-opacity="0.6"/>
<rect x="206.8" y="290.9" width="14.2" height="19.3" rx="6.0" fill="url(#kern)" stroke="#9c6a0a" stroke-width="0.8" stroke-opacity="0.6"/>
<rect x="216.0" y="293.3" width="19.1" height="19.3" rx="8.0" fill="url(#kern)" stroke="#9c6a0a" stroke-width="0.8" stroke-opacity="0.6"/>
<rect x="228.9" y="294.9" width="22.2" height="19.3" rx="8.1" fill="url(#kern)" stroke="#9c6a0a" stroke-width="0.8" stroke-opacity="0.6"/>
<rect x="244.4" y="295.4" width="23.3" height="19.3" rx="8.1" fill="url(#kern)" stroke="#9c6a0a" stroke-width="0.8" stroke-opacity="0.6"/>
<rect x="260.9" y="294.9" width="22.2" height="19.3" rx="8.1" fill="url(#kern)" stroke="#9c6a0a" stroke-width="0.8" stroke-opacity="0.6"/>
<rect x="276.9" y="293.3" width="19.1" height="19.3" rx="8.0" fill="url(#kern)" stroke="#9c6a0a" stroke-width="0.8" stroke-opacity="0.6"/>
<rect x="291.0" y="290.9" width="14.2" height="19.3" rx="6.0" fill="url(#kern)" stroke="#9c6a0a" stroke-width="0.8" stroke-opacity="0.6"/>
<rect x="301.9" y="287.8" width="8.0" height="19.3" rx="3.4" fill="url(#kern)" stroke="#9c6a0a" stroke-width="0.8" stroke-opacity="0.6"/>
<rect x="216.2" y="308.7" width="8.6" height="18.0" rx="3.6" fill="url(#kern)" stroke="#9c6a0a" stroke-width="0.8" stroke-opacity="0.6"/>
<rect x="221.6" y="311.3" width="12.8" height="18.0" rx="5.4" fill="url(#kern)" stroke="#9c6a0a" stroke-width="0.8" stroke-opacity="0.6"/>
<rect x="230.1" y="313.2" width="15.9" height="18.0" rx="6.7" fill="url(#kern)" stroke="#9c6a0a" stroke-width="0.8" stroke-opacity="0.6"/>
<rect x="241.1" y="314.2" width="17.5" height="18.0" rx="7.4" fill="url(#kern)" stroke="#9c6a0a" stroke-width="0.8" stroke-opacity="0.6"/>
<rect x="253.4" y="314.2" width="17.5" height="18.0" rx="7.4" fill="url(#kern)" stroke="#9c6a0a" stroke-width="0.8" stroke-opacity="0.6"/>
<rect x="266.0" y="313.2" width="15.9" height="18.0" rx="6.7" fill="url(#kern)" stroke="#9c6a0a" stroke-width="0.8" stroke-opacity="0.6"/>
<rect x="277.6" y="311.3" width="12.8" height="18.0" rx="5.4" fill="url(#kern)" stroke="#9c6a0a" stroke-width="0.8" stroke-opacity="0.6"/>
<rect x="287.3" y="308.7" width="8.6" height="18.0" rx="3.6" fill="url(#kern)" stroke="#9c6a0a" stroke-width="0.8" stroke-opacity="0.6"/>
<rect x="227.6" y="326.7" width="4.2" height="16.6" rx="1.8" fill="url(#kern)" stroke="#9c6a0a" stroke-width="0.8" stroke-opacity="0.6"/>
<rect x="230.1" y="329.3" width="7.5" height="16.6" rx="3.1" fill="url(#kern)" stroke="#9c6a0a" stroke-width="0.8" stroke-opacity="0.6"/>
<rect x="235.0" y="331.4" width="10.0" height="16.6" rx="4.2" fill="url(#kern)" stroke="#9c6a0a" stroke-width="0.8" stroke-opacity="0.6"/>
<rect x="241.8" y="332.8" width="11.7" height="16.6" rx="4.9" fill="url(#kern)" stroke="#9c6a0a" stroke-width="0.8" stroke-opacity="0.6"/>
<rect x="249.9" y="333.2" width="12.2" height="16.6" rx="5.1" fill="url(#kern)" stroke="#9c6a0a" stroke-width="0.8" stroke-opacity="0.6"/>
<rect x="258.6" y="332.8" width="11.7" height="16.6" rx="4.9" fill="url(#kern)" stroke="#9c6a0a" stroke-width="0.8" stroke-opacity="0.6"/>
<rect x="267.0" y="331.4" width="10.0" height="16.6" rx="4.2" fill="url(#kern)" stroke="#9c6a0a" stroke-width="0.8" stroke-opacity="0.6"/>
<rect x="274.4" y="329.3" width="7.5" height="16.6" rx="3.1" fill="url(#kern)" stroke="#9c6a0a" stroke-width="0.8" stroke-opacity="0.6"/>
<rect x="280.2" y="326.7" width="4.2" height="16.6" rx="1.8" fill="url(#kern)" stroke="#9c6a0a" stroke-width="0.8" stroke-opacity="0.6"/>
<rect x="240.9" y="347.4" width="3.2" height="15.3" rx="1.4" fill="url(#kern)" stroke="#9c6a0a" stroke-width="0.8" stroke-opacity="0.6"/>
<rect x="242.9" y="349.6" width="4.9" height="15.3" rx="2.0" fill="url(#kern)" stroke="#9c6a0a" stroke-width="0.8" stroke-opacity="0.6"/>
<rect x="246.2" y="351.2" width="6.0" height="15.3" rx="2.5" fill="url(#kern)" stroke="#9c6a0a" stroke-width="0.8" stroke-opacity="0.6"/>
<rect x="250.3" y="352.0" width="6.6" height="15.3" rx="2.8" fill="url(#kern)" stroke="#9c6a0a" stroke-width="0.8" stroke-opacity="0.6"/>
<rect x="255.0" y="352.0" width="6.6" height="15.3" rx="2.8" fill="url(#kern)" stroke="#9c6a0a" stroke-width="0.8" stroke-opacity="0.6"/>
<rect x="259.8" y="351.2" width="6.0" height="15.3" rx="2.5" fill="url(#kern)" stroke="#9c6a0a" stroke-width="0.8" stroke-opacity="0.6"/>
<rect x="264.2" y="349.6" width="4.9" height="15.3" rx="2.0" fill="url(#kern)" stroke="#9c6a0a" stroke-width="0.8" stroke-opacity="0.6"/>
<rect x="267.8" y="347.4" width="3.2" height="15.3" rx="1.4" fill="url(#kern)" stroke="#9c6a0a" stroke-width="0.8" stroke-opacity="0.6"/>
<rect x="247.5" y="365.0" width="1.3" height="14.6" rx="0.5" fill="url(#kern)" stroke="#9c6a0a" stroke-width="0.8" stroke-opacity="0.6"/>
<rect x="248.3" y="367.3" width="2.2" height="14.6" rx="0.9" fill="url(#kern)" stroke="#9c6a0a" stroke-width="0.8" stroke-opacity="0.6"/>
<rect x="249.7" y="369.1" width="3.0" height="14.6" rx="1.3" fill="url(#kern)" stroke="#9c6a0a" stroke-width="0.8" stroke-opacity="0.6"/>
<rect x="251.7" y="370.3" width="3.5" height="14.6" rx="1.5" fill="url(#kern)" stroke="#9c6a0a" stroke-width="0.8" stroke-opacity="0.6"/>
<rect x="254.2" y="370.7" width="3.7" height="14.6" rx="1.5" fill="url(#kern)" stroke="#9c6a0a" stroke-width="0.8" stroke-opacity="0.6"/>
<rect x="256.8" y="370.3" width="3.5" height="14.6" rx="1.5" fill="url(#kern)" stroke="#9c6a0a" stroke-width="0.8" stroke-opacity="0.6"/>
<rect x="259.3" y="369.1" width="3.0" height="14.6" rx="1.3" fill="url(#kern)" stroke="#9c6a0a" stroke-width="0.8" stroke-opacity="0.6"/>
<rect x="261.5" y="367.3" width="2.2" height="14.6" rx="0.9" fill="url(#kern)" stroke="#9c6a0a" stroke-width="0.8" stroke-opacity="0.6"/>
<rect x="263.2" y="365.0" width="1.3" height="14.6" rx="0.5" fill="url(#kern)" stroke="#9c6a0a" stroke-width="0.8" stroke-opacity="0.6"/>
<path d="M198,168 a58,58 0 0 1 116,0 C314,319.2 282.1,378 256,378 C229.9,378 198,319.2 198,168 Z" fill="url(#cyl)"/>
<path d="M198,168 a58,58 0 0 1 116,0 C314,319.2 282.1,378 256,378 C229.9,378 198,319.2 198,168 Z" fill="url(#cylV)"/>
<ellipse cx="237.44" cy="210.0" rx="9.28" ry="71.4" fill="#ffffff" opacity="0.25" transform="rotate(-12 237.44 210.0)"/>
</g>
<path d="M198,168 a58,58 0 0 1 116,0 C314,319.2 282.1,378 256,378 C229.9,378 198,319.2 198,168 Z" fill="none" stroke="#8a5c08" stroke-width="2.5" stroke-opacity="0.7"/>
</g><rect x="164" y="132" width="184" height="292" rx="46" fill="url(#glass)" stroke="#eaf4ff" stroke-opacity="0.55" stroke-width="3"/><rect x="182" y="150" width="26" height="250" rx="13" fill="#ffffff" opacity="0.45"/><rect x="306" y="168" width="12" height="210" rx="6" fill="#ffffff" opacity="0.22"/><rect x="176" y="96" width="160" height="46" rx="12" fill="url(#metalV)" stroke="#7f93a8" stroke-width="3"/><rect x="188" y="104" width="136" height="10" rx="5" fill="#ffffff" opacity="0.5"/></svg>